<ttFont>
<head>
    <!-- Most of this table will be recalculated by the compiler -->
    <tableVersion value="1.0"/>
    <fontRevision value="1.0"/>
    <checkSumAdjustment value="0x7ce4dd5c"/>
    <magicNumber value="0x5f0f3cf5"/>
    <flags value="00000000 00000011"/>
    <unitsPerEm value="1000"/>
    <created value="Sun Mar 15 23:41:16 2020"/>
    <modified value="Sun Mar 15 23:41:16 2020"/>
    <xMin value="-242"/>
    <yMin value="-250"/>
    <xMax value="750"/>
    <yMax value="561"/>
    <macStyle value="00000000 00000000"/>
    <lowestRecPPEM value="3"/>
    <fontDirectionHint value="2"/>
    <indexToLocFormat value="0"/>
    <glyphDataFormat value="0"/>
  </head>
        <CharString name=".notdef">
          -17 0 40 370 40 hstem
          40 40 170 40 vstem
          40 450 rmoveto
          -450 250 450 vlineto
          -186 -40 rmoveto
          119 hlineto
          -59 -137 rlineto
          21 -51 rmoveto
          65 149 rlineto
          -297 vlineto
          -108 148 rmoveto
          -62 -141 rlineto
          283 vlineto
          84 -192 rmoveto
          57 -132 rlineto
          -115 hlineto
          endchar
        </CharString>
        <CharString name="ainar">
          333 -110 70 40 70 160 -20 hstem
          0 80 274 62 vstem
          100 hmoveto
          499 hlineto
          41 70 rlineto
          -139 hlineto
          -32 -53 47 31 29 65 38 20 12 hvcurveto
          -1 3 rlineto
          -53 -26 -93 -47 -48 vvcurveto
          -13 6 -13 16 -13 vhcurveto
          -286 hlineto
          -50 -40 -40 -50 -50 40 -40 50 hvcurveto
          445 hlineto
          41 70 rlineto
          -476 hlineto
          -11 -9 9 11 11 9 9 11 hvcurveto
          endchar
        </CharString>
        <CharString name="ainar.1">
          182 -110 70 40 70 0 83 77 -20 hstemhm
          0 42 161 62 hintmask 11011100
          57 67 rmoveto
          52 -52 rlineto
          -10 10 9 -5 12 hhcurveto
          308 hlineto
          41 70 rlineto
          -139 hlineto
          -32 -53 47 31 29 65 38 20 12 hvcurveto
          -1 3 rlineto
          -53 -26 -93 -47 -48 vvcurveto
          -13 6 -13 16 -13 vhcurveto
          -49 hlineto
          -9 -5 5 4 -4 hvcurveto
          -64 64 rlineto
          hintmask 10111100
          -50 50 -44 -149 -49 vvcurveto
          -85 57 -19 74 -1 vhcurveto
          260 hlineto
          41 70 rlineto
          -273 hlineto
          -32 -22 3 23 -23 hvcurveto
          -31 31 rlineto
          hintmask 11011100
          -17 17 9 47 14 -14 rrcurveto
          endchar
        </CharString>
        <CharString name="ainar.2">
          182 -110 70 40 70 0 83 77 -20 hstemhm
          0 42 161 62 hintmask 11011100
          57 67 rmoveto
          52 -52 rlineto
          -10 10 9 -5 12 hhcurveto
          308 hlineto
          41 70 rlineto
          -139 hlineto
          -32 -53 47 31 29 65 38 20 12 hvcurveto
          -1 3 rlineto
          -53 -26 -93 -47 -48 vvcurveto
          -13 6 -13 16 -13 vhcurveto
          -49 hlineto
          -9 -5 5 4 -4 hvcurveto
          -64 64 rlineto
          hintmask 10111100
          -50 50 -44 -149 -49 vvcurveto
          -85 57 -19 74 -1 vhcurveto
          45 hlineto
          31 101 47 23 54 hvcurveto
          -203 hlineto
          -32 -22 3 23 -23 hvcurveto
          -31 31 rlineto
          hintmask 11011100
          -17 17 9 47 14 -14 rrcurveto
          endchar
        </CharString>
        <CharString name="ainar.3">
          -17 -250 31 219 70 80 60 hstemhm
          0 80 -30 80 hintmask 11010000
          254 -219 rmoveto
          -83 -91 36 90 67 50 26 40 hvcurveto
          79 hlineto
          41 70 rlineto
          hintmask 11101000
          -127 hlineto
          -21 -12 17 19 21 16 23 37 13 16 -3 -7 18 hvcurveto
          45 -14 -35 25 -35 hhcurveto
          -88 -30 -102 -63 38 hvcurveto
          hintmask 11010000
          -43 -29 -23 -52 -54 vvcurveto
          -104 86 -56 113 43 46 8 35 76 vhcurveto
          -8 -49 -35 -4 -26 hhcurveto
          endchar
        </CharString>
        <CharString name="ainar.fina">
          -43 -250 31 219 70 160 -20 hstem
          0 80 104 80 vstem
          254 -219 rmoveto
          -83 -91 36 90 67 50 26 40 hvcurveto
          134 70 -40 200 hlineto
          -80 -20 rlineto
          -100 vlineto
          -80 80 -42 -71 89 -89 rlineto
          -1 hlineto
          -96 -54 -78 -82 -104 86 -56 113 43 46 8 35 76 hvcurveto
          -8 -49 -35 -4 -26 hhcurveto
          endchar
        </CharString>
        <CharString name="ainar.init">
          -17 0 70 160 -20 hstemhm
          -20 86 -62 62 hintmask 00000000
          hintmask 11100000
          -20 hmoveto
          269 hlineto
          41 70 rlineto
          hintmask 11010000
          -139 hlineto
          -32 -53 47 31 29 65 38 20 12 hvcurveto
          -1 3 rlineto
          -53 -26 -93 -47 -48 vvcurveto
          -13 6 -13 16 -13 vhcurveto
          hintmask 11100000
          -46 hlineto
          endchar
        </CharString>
        <CharString name="ainar.init.1">
          -67 0 70 80 60 hstem
          0 80 vstem
          240 70 rmoveto
          -127 hlineto
          -21 -12 17 19 21 16 23 37 13 16 -3 -7 18 hvcurveto
          45 -14 -35 25 -35 hhcurveto
          -77 -33 -78 -62 19 hvcurveto
          -25 -70 219 hlineto
          endchar
        </CharString>
        <CharString name="ainar.medi">
          -105 0 70 160 -20 hstem
          122 80 vstem
          203 70 rmoveto
          -1 1 rlineto
          199 vlineto
          -80 -20 rlineto
          -100 vlineto
          -80 80 -42 -71 89 -89 rlineto
          -109 -70 262 70 hlineto
          endchar
        </CharString>
        <CharString name="alefHamzaabovear">
          13 0 48 426 29 33 25 hstem
          0 80 vstem
          114 474 rmoveto
          108 hlineto
          17 29 rlineto
          -53 hlineto
          -8 -5 7 8 9 7 9 15 5 7 -1 -3 7 hvcurveto
          18 -6 -14 11 -14 hhcurveto
          -32 -14 -32 -26 8 hvcurveto
          -11 hlineto
          74 -455 rmoveto
          -64 -61 22 70 hvcurveto
          420 vlineto
          -80 -20 rlineto
          -410 vlineto
          -88 5 74 -42 79 hhcurveto
          60 63 24 46 39 hvcurveto
          -12 -28 -44 -10 -43 hhcurveto
          endchar
        </CharString>
        <CharString name="alefHamzabelowar">
          13 -107 29 33 25 20 48 512 -20 hstemhm
          0 80 hintmask 10111000
          205 48 rmoveto
          -64 -61 22 70 hvcurveto
          420 vlineto
          -80 -20 rlineto
          -410 vlineto
          -88 5 74 -42 79 hhcurveto
          60 63 24 46 39 hvcurveto
          -12 -28 -44 -10 -43 hhcurveto
          -128 -126 rmoveto
          -8 -5 7 8 hvcurveto
          hintmask 11111000
          9 7 9 15 5 7 -1 -3 7 vhcurveto
          18 -6 -14 11 -14 hhcurveto
          -32 -14 -32 -26 8 hvcurveto
          -11 hlineto
          -17 -29 rlineto
          108 hlineto
          17 29 rlineto
          endchar
        </CharString>
        <CharString name="alefMaddaar">
          13 0 48 512 -20 hstem
          0 80 vstem
          205 48 rmoveto
          -64 -61 22 70 hvcurveto
          420 vlineto
          -80 -20 rlineto
          -410 vlineto
          -88 5 74 -42 79 hhcurveto
          60 63 24 46 39 hvcurveto
          -12 -28 -44 -10 -43 hhcurveto
          endchar
        </CharString>
        <CharString name="alefMaksuraar">
          -100 -220 70 40 67 64 -21 70 83 hstem
          0 42 85 80 vstem
          159 -43 rmoveto
          -32 -22 6 23 -23 hvcurveto
          -31 31 -17 17 9 47 14 -14 rlinecurve
          52 -52 rlineto
          -10 10 9 -5 12 hhcurveto
          16 36 10 80 10 hvcurveto
          -15 -3 -14 -5 -9 hhcurveto
          -9 -5 5 4 -4 hvcurveto
          -64 64 rlineto
          -50 50 -44 -149 -49 vvcurveto
          -83 55 -20 72 -2 vhcurveto
          -40 -60 vlineto
          -20 -17 5 15 -11 hvcurveto
          -52 -90 rlineto
          202 hlineto
          23 15 15 25 hvcurveto
          96 vlineto
          25 -13 16 -35 vhcurveto
          endchar
        </CharString>
        <CharString name="alefMaksuraar.1">
          -100 -250 70 70 67 64 -21 70 83 hstem
          0 42 85 80 vstem
          159 -43 rmoveto
          -32 -22 6 23 -23 hvcurveto
          -31 31 -17 17 9 47 14 -14 rlinecurve
          52 -52 rlineto
          -10 10 9 -5 12 hhcurveto
          16 36 10 80 10 hvcurveto
          -15 -3 -14 -5 -9 hhcurveto
          -9 -5 5 4 -4 hvcurveto
          -64 64 rlineto
          -50 50 -44 -149 -49 vvcurveto
          -83 55 -20 72 -2 vhcurveto
          -70 -60 vlineto
          -20 -17 5 15 -11 hvcurveto
          -52 -90 rlineto
          202 hlineto
          23 15 15 25 hvcurveto
          126 vlineto
          25 -13 16 -35 vhcurveto
          endchar
        </CharString>
        <CharString name="alefMaksuraar.2">
          -105 -110 70 61 -21 70 83 hstem
          0 42 vstem
          149 -40 rmoveto
          -32 -12 3 23 -23 hvcurveto
          -31 31 -17 17 9 47 14 -14 rlinecurve
          52 -52 rlineto
          -10 10 9 -5 12 hhcurveto
          16 36 10 80 10 hvcurveto
          -15 -3 -14 -5 -9 hhcurveto
          -9 -5 5 4 -4 hvcurveto
          -64 64 rlineto
          -50 50 -44 -149 -49 vvcurveto
          -85 57 -19 74 -1 vhcurveto
          260 hlineto
          41 70 rlineto
          endchar
        </CharString>
        <CharString name="alefMaksuraar.3">
          -105 -110 70 61 -21 70 83 hstem
          0 42 vstem
          149 -40 rmoveto
          -32 -12 3 23 -23 hvcurveto
          -31 31 -17 17 9 47 14 -14 rlinecurve
          52 -52 rlineto
          -10 10 9 -5 12 hhcurveto
          16 36 10 80 10 hvcurveto
          -15 -3 -14 -5 -9 hhcurveto
          -9 -5 5 4 -4 hvcurveto
          -64 64 rlineto
          -50 50 -44 -149 -49 vvcurveto
          -85 57 -19 74 -1 vhcurveto
          405 hlineto
          41 70 rlineto
          endchar
        </CharString>
        <CharString name="alefMaksuraar.4">
          -105 -110 70 61 -21 70 83 hstem
          0 42 vstem
          149 -40 rmoveto
          -32 -12 3 23 -23 hvcurveto
          -31 31 -17 17 9 47 14 -14 rlinecurve
          52 -52 rlineto
          -10 10 9 -5 12 hhcurveto
          16 36 10 80 10 hvcurveto
          -15 -3 -14 -5 -9 hhcurveto
          -9 -5 5 4 -4 hvcurveto
          -64 64 rlineto
          -50 50 -44 -149 -49 vvcurveto
          -85 57 -19 74 -1 vhcurveto
          560 hlineto
          41 70 rlineto
          endchar
        </CharString>
        <CharString name="alefMaksuraar.5">
          -105 -110 70 61 -21 70 83 hstem
          0 42 vstem
          149 -40 rmoveto
          -32 -12 3 23 -23 hvcurveto
          -31 31 -17 17 9 47 14 -14 rlinecurve
          52 -52 rlineto
          -10 10 9 -5 12 hhcurveto
          16 36 10 80 10 hvcurveto
          -15 -3 -14 -5 -9 hhcurveto
          -9 -5 5 4 -4 hvcurveto
          -64 64 rlineto
          -50 50 -44 -149 -49 vvcurveto
          -85 57 -19 74 -1 vhcurveto
          45 hlineto
          31 101 47 23 54 hvcurveto
          endchar
        </CharString>
        <CharString name="alefMaksuraar.6">
          -105 -110 70 61 -21 70 83 hstem
          0 42 vstem
          149 -40 rmoveto
          -32 -12 3 23 -23 hvcurveto
          -31 31 -17 17 9 47 14 -14 rlinecurve
          52 -52 rlineto
          -10 10 9 -5 12 hhcurveto
          16 36 10 80 10 hvcurveto
          -15 -3 -14 -5 -9 hhcurveto
          -9 -5 5 4 -4 hvcurveto
          -64 64 rlineto
          -50 50 -44 -149 -49 vvcurveto
          -85 57 -19 74 -1 vhcurveto
          46 hlineto
          125 258 36 18 163 hvcurveto
          9 16 rlineto
          endchar
        </CharString>
        <CharString name="alefMaksuraar.fina">
          -140 -220 70 40 67 43 70 0 83 hstemhm
          0 42 85 80 hintmask 11101100
          57 67 rmoveto
          52 -52 rlineto
          -10 10 9 -5 12 hhcurveto
          67 70 -31 hlineto
          -9 -5 5 4 -4 hvcurveto
          -64 64 rlineto
          hintmask 11011100
          -50 50 -44 -149 -49 vvcurveto
          -83 55 -20 72 -2 vhcurveto
          -40 -60 vlineto
          -20 -17 5 15 -11 hvcurveto
          -52 -90 rlineto
          202 hlineto
          23 15 15 25 hvcurveto
          96 vlineto
          25 -13 16 -35 -32 -22 6 23 -23 vhcurveto
          -31 31 rlineto
          hintmask 11101100
          -17 17 9 47 14 -14 rrcurveto
          endchar
        </CharString>
        <CharString name="alefMaksuraar.fina.0">
          -140 -220 70 40 67 43 70 0 83 hstemhm
          0 42 85 80 hintmask 11101100
          57 67 rmoveto
          52 -52 rlineto
          -10 10 9 -5 12 hhcurveto
          67 70 -31 hlineto
          -9 -5 5 4 -4 hvcurveto
          -64 64 rlineto
          hintmask 11011100
          -50 50 -44 -149 -49 vvcurveto
          -83 55 -20 72 -2 vhcurveto
          -40 -60 vlineto
          -20 -17 5 15 -11 hvcurveto
          -52 -90 rlineto
          202 hlineto
          23 15 15 25 hvcurveto
          96 vlineto
          25 -13 16 -35 -32 -22 6 23 -23 vhcurveto
          -31 31 rlineto
          hintmask 11101100
          -17 17 9 47 14 -14 rrcurveto
          endchar
        </CharString>
        <CharString name="alefMaksuraar.fina.1">
          -140 -250 70 70 67 43 70 0 83 hstemhm
          0 42 85 80 hintmask 11101100
          57 67 rmoveto
          52 -52 rlineto
          -10 10 9 -5 12 hhcurveto
          67 70 -31 hlineto
          -9 -5 5 4 -4 hvcurveto
          -64 64 rlineto
          hintmask 11011100
          -50 50 -44 -149 -49 vvcurveto
          -83 55 -20 72 -2 vhcurveto
          -70 -60 vlineto
          -20 -17 5 15 -11 hvcurveto
          -52 -90 rlineto
          202 hlineto
          23 15 15 25 hvcurveto
          126 vlineto
          25 -13 16 -35 -32 -22 6 23 -23 vhcurveto
          -31 31 rlineto
          hintmask 11101100
          -17 17 9 47 14 -14 rrcurveto
          endchar
        </CharString>
        <CharString name="alefMaksuraar.fina.2">
          -140 -110 70 40 70 0 83 hstemhm
          0 42 hintmask 11010000
          159 -40 rmoveto
          -32 -22 3 23 -23 hvcurveto
          hintmask 10110000
          -31 31 -17 17 9 47 14 -14 rlinecurve
          hintmask 11010000
          52 -52 rlineto
          -10 10 9 -5 12 hhcurveto
          67 70 -31 hlineto
          -9 -5 5 4 -4 hvcurveto
          -64 64 rlineto
          hintmask 10110000
          -50 50 -44 -149 -49 vvcurveto
          -85 57 -19 74 -1 vhcurveto
          260 hlineto
          41 70 rlineto
          endchar
        </CharString>
        <CharString name="alefMaksuraar.fina.3">
          -140 -110 70 40 70 0 83 hstemhm
          0 42 hintmask 11010000
          159 -40 rmoveto
          -32 -22 3 23 -23 hvcurveto
          hintmask 10110000
          -31 31 -17 17 9 47 14 -14 rlinecurve
          hintmask 11010000
          52 -52 rlineto
          -10 10 9 -5 12 hhcurveto
          67 70 -31 hlineto
          -9 -5 5 4 -4 hvcurveto
          -64 64 rlineto
          hintmask 10110000
          -50 50 -44 -149 -49 vvcurveto
          -85 57 -19 74 -1 vhcurveto
          405 hlineto
          41 70 rlineto
          endchar
        </CharString>
        <CharString name="alefMaksuraar.fina.4">
          -140 -110 70 40 70 0 83 hstemhm
          0 42 hintmask 11010000
          159 -40 rmoveto
          -32 -22 3 23 -23 hvcurveto
          hintmask 10110000
          -31 31 -17 17 9 47 14 -14 rlinecurve
          hintmask 11010000
          52 -52 rlineto
          -10 10 9 -5 12 hhcurveto
          67 70 -31 hlineto
          -9 -5 5 4 -4 hvcurveto
          -64 64 rlineto
          hintmask 10110000
          -50 50 -44 -149 -49 vvcurveto
          -85 57 -19 74 -1 vhcurveto
          560 hlineto
          41 70 rlineto
          endchar
        </CharString>
        <CharString name="alefMaksuraar.fina.5">
          -140 -110 70 40 70 0 83 hstemhm
          0 42 hintmask 11010000
          159 -40 rmoveto
          -32 -22 3 23 -23 hvcurveto
          hintmask 10110000
          -31 31 -17 17 9 47 14 -14 rlinecurve
          hintmask 11010000
          52 -52 rlineto
          -10 10 9 -5 12 hhcurveto
          67 70 -31 hlineto
          -9 -5 5 4 -4 hvcurveto
          -64 64 rlineto
          hintmask 10110000
          -50 50 -44 -149 -49 vvcurveto
          -85 57 -19 74 -1 vhcurveto
          45 hlineto
          31 101 47 23 54 hvcurveto
          endchar
        </CharString>
        <CharString name="alefMaksuraar.fina.6">
          -140 -110 70 40 70 0 83 hstemhm
          0 42 hintmask 11010000
          159 -40 rmoveto
          -32 -22 3 23 -23 hvcurveto
          hintmask 10110000
          -31 31 -17 17 9 47 14 -14 rlinecurve
          hintmask 11010000
          52 -52 rlineto
          -10 10 9 -5 12 hhcurveto
          67 70 -31 hlineto
          -9 -5 5 4 -4 hvcurveto
          -64 64 rlineto
          hintmask 10110000
          -50 50 -44 -149 -49 vvcurveto
          -85 57 -19 74 -1 vhcurveto
          46 hlineto
          125 258 36 18 163 hvcurveto
          9 16 rlineto
          endchar
        </CharString>
        <CharString name="alefMaksuraar.fina.tooth">
          -67 -220 70 40 70 hstem
          0 80 116 84 vstem
          166 -40 rmoveto
          -76 hlineto
          -7 -3 3 7 hvcurveto
          80 -80 -120 vlineto
          -25 15 -15 23 vhcurveto
          118 hlineto
          22 18 -18 -22 hvcurveto
          -196 hlineto
          -40 -70 rlineto
          299 hlineto
          6 15 0 21 139 -70 20 -44 hvcurveto
          endchar
        </CharString>
        <CharString name="alefWaslaar">
          13 0 48 512 -20 hstem
          0 80 vstem
          205 48 rmoveto
          -64 -61 22 70 hvcurveto
          420 vlineto
          -80 -20 rlineto
          -410 vlineto
          -88 5 74 -42 79 hhcurveto
          60 63 24 46 39 hvcurveto
          -12 -28 -44 -10 -43 hhcurveto
          endchar
        </CharString>
        <CharString name="alefar">
          13 0 48 512 -20 hstem
          0 80 vstem
          205 48 rmoveto
          -64 -61 22 70 hvcurveto
          420 vlineto
          -80 -20 rlineto
          -410 vlineto
          -88 5 74 -42 79 hhcurveto
          60 63 24 46 39 hvcurveto
          -12 -28 -44 -10 -43 hhcurveto
          endchar
        </CharString>
        <CharString name="alefar.1">
          -147 0 43 517 -20 hstem
          0 80 vstem
          127 43 rmoveto
          -24 -23 11 26 hvcurveto
          480 vlineto
          -80 -20 rlineto
          -460 vlineto
          -50 37 -30 40 30 31 16 34 22 vhcurveto
          -4 -9 -12 -3 -12 hhcurveto
          endchar
        </CharString>
        <CharString name="alefar.2">
          -67 0 37 523 -20 hstem
          0 80 vstem
          165 37 rmoveto
          -46 -39 17 46 hvcurveto
          460 vlineto
          -80 -20 rlineto
          -440 vlineto
          -66 52 -34 61 42 47 16 34 38 vhcurveto
          -8 -24 -27 -5 -24 hhcurveto
          endchar
        </CharString>
        <CharString name="alefar.3">
          -187 0 20 540 -20 hstem
          40 80 vstem
          40 540 rmoveto
          -470 vlineto
          -30 -13 -20 -27 vhcurveto
          -10 10 20 -10 22 hhcurveto
          38 30 30 50 hvcurveto
          480 vlineto
          endchar
        </CharString>
        <CharString name="alefar.fina">
          -227 0 70 490 -20 hstem
          0 80 vstem
          90 70 rmoveto
          -7 -3 3 7 hvcurveto
          480 vlineto
          -80 -20 rlineto
          -500 vlineto
          -25 15 -15 23 vhcurveto
          82 70 hlineto
          endchar
        </CharString>
        <CharString name="behDotlessar">
          253 0 70 160 -20 hstem
          480 80 vstem
          480 210 rmoveto
          -140 -380 vlineto
          -22 -16 7 13 -10 hvcurveto
          -52 -90 rlineto
          539 hlineto
          6 15 0 11 hvcurveto
          219 vlineto
          endchar
        </CharString>
        <CharString name="behDotlessar.fina">
          253 0 70 160 -20 hstem
          480 80 vstem
          560 110 rmoveto
          120 vlineto
          -80 -20 rlineto
          -140 -380 vlineto
          -22 -16 7 13 -10 hvcurveto
          -52 -90 rlineto
          539 hlineto
          61 70 hlineto
          -22 -18 18 22 hvcurveto
          endchar
        </CharString>
        <CharString name="behDotlessar.fina.1">
          253 0 70 hstem
          0 600 vstem
          553 70 rmoveto
          -51 140 -68 -46 34 -94 rlineto
          -368 hlineto
          -22 -16 7 13 -10 hvcurveto
          -52 -90 rlineto
          600 70 hlineto
          endchar
        </CharString>
        <CharString name="behDotlessar.init">
          -227 0 70 160 -20 hstem
          0 80 vstem
          -20 hmoveto
          79 hlineto
          6 15 0 11 hvcurveto
          219 vlineto
          -80 -20 rlineto
          -140 -20 vlineto
          endchar
        </CharString>
        <CharString name="behDotlessar.init.hah">
          -267 0 25 hstem
          0 80 vstem
          -20 hmoveto
          57 43 30 40 hvcurveto
          90 vlineto
          -80 -20 rlineto
          -70 vlineto
          -19 0 -26 -20 vhcurveto
          endchar
        </CharString>
        <CharString name="behDotlessar.medi">
          -227 0 70 160 -20 hstem
          0 80 vstem
          80 110 rmoveto
          120 vlineto
          -80 -20 rlineto
          -140 -20 -70 79 vlineto
          61 70 hlineto
          -22 -18 18 22 hvcurveto
          endchar
        </CharString>
        <CharString name="behDotlessar.medi.1">
          -197 0 70 hstem
          -20 170 vstem
          110 70 rmoveto
          -70 70 -40 -70 rlineto
          -20 -70 170 70 hlineto
          endchar
        </CharString>
        <CharString name="behDotlessar.medi.high">
          -227 0 70 hstem
          0 80 vstem
          80 110 rmoveto
          160 vlineto
          -80 -20 rlineto
          -180 -20 -70 79 vlineto
          61 70 hlineto
          -22 -18 18 22 hvcurveto
          endchar
        </CharString>
        <CharString name="behDotlessar.medi.high.1">
          -227 0 70 170 -20 hstem
          0 80 vstem
          80 110 rmoveto
          150 vlineto
          -80 -20 rlineto
          -170 -20 -70 79 vlineto
          61 70 hlineto
          -22 -18 18 22 hvcurveto
          endchar
        </CharString>
        <CharString name="behDotlessar.medi.yeh">
          -227 0 70 160 -20 hstem
          0 80 vstem
          80 80 rmoveto
          150 vlineto
          -80 -20 rlineto
          -210 120 70 -30 vlineto
          -7 -3 3 7 hvcurveto
          endchar
        </CharString>
        <CharString name="behar">
          253 0 70 160 -20 hstem
          480 80 vstem
          480 210 rmoveto
          -140 -380 vlineto
          -22 -16 7 13 -10 hvcurveto
          -52 -90 rlineto
          539 hlineto
          6 15 0 11 hvcurveto
          219 vlineto
          -327 -344 rmoveto
          17 -10 47 79 -17 10 rlineto
          endchar
        </CharString>
        <CharString name="dadar">
          393 -250 70 180 70 40 70 hstem
          70 80 466 84 vstem
          427 334 rmoveto
          -17 10 -47 -79 17 -10 rlineto
          206 -75 rmoveto
          -436 hlineto
          -80 80 -40 -70 40 -40 rlineto
          -330 -100 vlineto
          -20 -17 5 15 -11 hvcurveto
          -52 -90 rlineto
          242 hlineto
          23 15 15 25 hvcurveto
          210 529 vlineto
          6 15 0 21 139 -70 20 -44 hvcurveto
          30 -110 rmoveto
          -466 40 426 hlineto
          22 18 -18 -22 hvcurveto
          endchar
        </CharString>
        <CharString name="dalar">
          253 0 70 40 70 hstem
          476 84 vstem
          446 180 rmoveto
          -326 hlineto
          27 70 rlineto
          -3 hlineto
          -80 -140 rlineto
          372 hlineto
          22 18 -18 -22 hvcurveto
          -436 hlineto
          -40 -70 rlineto
          539 hlineto
          6 15 0 21 139 -70 20 -44 hvcurveto
          endchar
        </CharString>
        <CharString name="dalar.fina">
          253 0 70 40 70 hstemhm
          0 600 -124 124 hintmask 11100000
          557 70 rmoveto
          95 -15 -58 15 -38 hhcurveto
          -326 hlineto
          27 70 rlineto
          -3 hlineto
          -80 -140 rlineto
          hintmask 11010000
          372 hlineto
          22 18 -18 -22 hvcurveto
          -436 hlineto
          -40 -70 rlineto
          600 70 hlineto
          endchar
        </CharString>
        <CharString name="dotabovear">
          0 89 hstem
          0 64 vstem
          17 hmoveto
          -17 10 47 79 17 -10 rlineto
          endchar
        </CharString>
        <CharString name="dotabovear.alt1">
          0 58 hstem
          0 58 vstem
          29 hmoveto
          16 13 13 16 16 -13 13 -16 -16 -13 -13 -16 -16 13 -13 16 hvcurveto
          endchar
        </CharString>
        <CharString name="dotbelowar">
          0 89 hstem
          0 64 vstem
          17 hmoveto
          -17 10 47 79 17 -10 rlineto
          endchar
        </CharString>
        <CharString name="dotbelowar.alt1">
          0 58 hstem
          0 58 vstem
          29 hmoveto
          16 13 13 16 16 -13 13 -16 -16 -13 -13 -16 -16 13 -13 16 hvcurveto
          endchar
        </CharString>
        <CharString name="eightar">
          -97 21 -21 280 70 hstem
          0 70 70 70 vstem
          210 350 rmoveto
          -210 -350 70 280 70 -280 70 hlineto
          endchar
        </CharString>
        <CharString name="eightar.1">
          -1 21 -21 hstem
          0 306 vstem
          306 23 rmoveto
          -120 327 rlineto
          -66 hlineto
          -120 -327 66 -23 87 238 87 -238 rlineto
          endchar
        </CharString>
        <CharString name="empty">
          endchar
        </CharString>
        <CharString name="fehDotbelowar">
          266 0 70 40 70 40 70 hstem
          360 80 52 81 vstem
          461 290 rmoveto
          -56 -45 -40 -50 -50 45 -40 55 10 10 1 3 10 hvcurveto
          2 -7 0 -8 -7 vvcurveto
          -7 0 -8 -2 -7 vhcurveto
          -390 hlineto
          -22 -16 7 13 -10 hvcurveto
          -52 -90 rlineto
          536 hlineto
          24 13 37 65 77 -19 111 -93 hvcurveto
          -1 -110 rmoveto
          -11 -9 9 11 11 9 9 11 11 9 -9 -11 -11 -9 -9 -11 hvcurveto
          -20 -294 rmoveto
          17 -10 47 79 -17 10 rlineto
          endchar
        </CharString>
        <CharString name="fehDotlessar">
          266 0 70 40 70 40 70 hstem
          360 80 52 81 vstem
          461 290 rmoveto
          -56 -45 -40 -50 -50 45 -40 55 10 10 1 3 10 hvcurveto
          2 -7 0 -8 -7 vvcurveto
          -7 0 -8 -2 -7 vhcurveto
          -390 hlineto
          -22 -16 7 13 -10 hvcurveto
          -52 -90 rlineto
          536 hlineto
          24 13 37 65 77 -19 111 -93 hvcurveto
          -1 -110 rmoveto
          -11 -9 9 11 11 9 9 11 11 9 -9 -11 -11 -9 -9 -11 hvcurveto
          endchar
        </CharString>
        <CharString name="fehDotlessar.1">
          253 0 70 40 70 40 70 hstem
          360 80 40 80 vstem
          460 290 rmoveto
          -55 -45 -40 -50 -50 45 -40 55 7 7 1 1 6 hvcurveto
          -42 -380 vlineto
          -22 -16 7 13 -10 hvcurveto
          -52 -90 rlineto
          539 hlineto
          6 15 0 11 hvcurveto
          189 vlineto
          50 -45 40 -55 vhcurveto
          -110 vmoveto
          -11 -9 9 11 11 9 9 11 11 9 -9 -11 -11 -9 -9 -11 hvcurveto
          endchar
        </CharString>
        <CharString name="fehDotlessar.2">
          306 0 70 40 70 40 70 hstem
          400 80 52 81 vstem
          501 290 rmoveto
          -56 -45 -40 -50 -50 45 -40 55 10 10 1 3 10 hvcurveto
          2 -7 0 -8 -7 vvcurveto
          -7 0 -8 -2 -7 vhcurveto
          -430 hlineto
          -22 -16 7 13 -10 hvcurveto
          -52 -90 rlineto
          576 hlineto
          24 13 37 65 77 -19 111 -93 hvcurveto
          -1 -110 rmoveto
          -11 -9 9 11 11 9 9 11 11 9 -9 -11 -11 -9 -9 -11 hvcurveto
          endchar
        </CharString>
        <CharString name="fehDotlessar.3">
          293 0 70 40 70 40 70 hstem
          400 80 40 80 vstem
          500 290 rmoveto
          -55 -45 -40 -50 -50 45 -40 55 7 7 1 1 6 hvcurveto
          -42 -420 vlineto
          -22 -16 7 13 -10 hvcurveto
          -52 -90 rlineto
          579 hlineto
          6 15 0 11 hvcurveto
          189 vlineto
          50 -45 40 -55 vhcurveto
          -110 vmoveto
          -11 -9 9 11 11 9 9 11 11 9 -9 -11 -11 -9 -9 -11 hvcurveto
          endchar
        </CharString>
        <CharString name="fehDotlessar.fina">
          266 0 70 40 70 40 70 hstem
          360 80 52 81 vstem
          572 70 rmoveto
          1 10 0 10 12 vvcurveto
          77 -19 111 -93 -56 -45 -40 -50 -50 45 -40 55 10 10 1 3 10 vhcurveto
          2 -7 0 -8 -7 vvcurveto
          -7 0 -8 -2 -7 vhcurveto
          -390 hlineto
          -22 -16 7 13 -10 hvcurveto
          -52 -90 rlineto
          613 70 hlineto
          -153 110 rmoveto
          -11 -9 9 11 11 9 9 11 11 9 -9 -11 -11 -9 -9 -11 hvcurveto
          endchar
        </CharString>
        <CharString name="fehDotlessar.fina.1">
          253 0 70 40 70 40 70 hstem
          360 80 40 80 vstem
          560 70 rmoveto
          130 vlineto
          50 -45 40 -55 -55 -45 -40 -50 -50 45 -40 55 7 7 1 1 6 vhcurveto
          -42 -380 vlineto
          -22 -16 7 13 -10 hvcurveto
          -52 -90 rlineto
          539 hlineto
          61 70 hlineto
          -140 110 rmoveto
          -11 -9 9 11 11 9 9 11 11 9 -9 -11 -11 -9 -9 -11 hvcurveto
          endchar
        </CharString>
        <CharString name="fehDotlessar.fina.2">
          306 0 70 40 70 40 70 hstem
          400 80 52 81 vstem
          612 70 rmoveto
          1 10 0 10 12 vvcurveto
          77 -19 111 -93 -56 -45 -40 -50 -50 45 -40 55 10 10 1 3 10 vhcurveto
          2 -7 0 -8 -7 vvcurveto
          -7 0 -8 -2 -7 vhcurveto
          -430 hlineto
          -22 -16 7 13 -10 hvcurveto
          -52 -90 rlineto
          653 70 hlineto
          -153 110 rmoveto
          -11 -9 9 11 11 9 9 11 11 9 -9 -11 -11 -9 -9 -11 hvcurveto
          endchar
        </CharString>
        <CharString name="fehDotlessar.fina.3">
          293 0 70 40 70 40 70 hstem
          400 80 40 80 vstem
          600 70 rmoveto
          130 vlineto
          50 -45 40 -55 -55 -45 -40 -50 -50 45 -40 55 7 7 1 1 6 vhcurveto
          -42 -420 vlineto
          -22 -16 7 13 -10 hvcurveto
          -52 -90 rlineto
          579 hlineto
          61 70 hlineto
          -140 110 rmoveto
          -11 -9 9 11 11 9 9 11 11 9 -9 -11 -11 -9 -9 -11 hvcurveto
          endchar
        </CharString>
        <CharString name="fehDotlessar.init">
          -94 0 70 40 70 40 70 hstem
          0 80 52 81 vstem
          -20 hmoveto
          196 hlineto
          24 13 37 65 77 -19 111 -93 -56 -45 -40 -50 -50 45 -40 55 10 10 1 3 10 hvcurveto
          2 -7 0 -8 -7 vvcurveto
          -7 0 -8 -2 -7 vhcurveto
          -150 hlineto
          120 110 rmoveto
          -11 -9 9 11 11 9 9 11 11 9 -9 -11 -11 -9 -9 -11 hvcurveto
          endchar
        </CharString>
        <CharString name="fehDotlessar.init.1">
          -107 0 70 40 70 40 70 hstem
          0 80 40 80 vstem
          100 290 rmoveto
          -55 -45 -40 -50 -50 45 -40 55 7 7 1 1 6 hvcurveto
          -42 -140 -70 199 vlineto
          6 15 0 11 hvcurveto
          189 vlineto
          50 -45 40 -55 vhcurveto
          -110 vmoveto
          -11 -9 9 11 11 9 9 11 11 9 -9 -11 -11 -9 -9 -11 hvcurveto
          endchar
        </CharString>
        <CharString name="fehDotlessar.medi">
          -99 0 70 170 70 hstem
          -1 78 49 80 vstem
          206 70 rmoveto
          137 vlineto
          57 -46 46 -57 -57 -47 -46 -57 -28 15 -26 19 -19 vhcurveto
          62 -64 rlineto
          -115 -70 268 70 hlineto
          -171 144 rmoveto
          14 8 12 15 14 12 -12 -14 vhcurveto
          -61 vlineto
          -40 41 rlineto
          -5 5 -4 7 8 vvcurveto
          endchar
        </CharString>
        <CharString name="fehDotlessar.medi.1">
          -107 0 70 40 70 40 70 hstem
          0 80 40 80 vstem
          200 70 rmoveto
          130 vlineto
          50 -45 40 -55 -55 -45 -40 -50 -50 45 -40 55 7 7 1 1 6 vhcurveto
          -42 -140 -70 199 vlineto
          61 70 hlineto
          -140 110 rmoveto
          -11 -9 9 11 11 9 9 11 11 9 -9 -11 -11 -9 -9 -11 hvcurveto
          endchar
        </CharString>
        <CharString name="fehar">
          266 0 70 40 70 40 70 hstem
          360 80 52 81 vstem
          474 414 rmoveto
          -17 10 -47 -79 17 -10 rlineto
          34 -45 rmoveto
          -56 -45 -40 -50 -50 45 -40 55 10 10 1 3 10 hvcurveto
          2 -7 0 -8 -7 vvcurveto
          -7 0 -8 -2 -7 vhcurveto
          -390 hlineto
          -22 -16 7 13 -10 hvcurveto
          -52 -90 rlineto
          536 hlineto
          24 13 37 65 77 -19 111 -93 hvcurveto
          -1 -110 rmoveto
          -11 -9 9 11 11 9 9 11 11 9 -9 -11 -11 -9 -9 -11 hvcurveto
          endchar
        </CharString>
        <CharString name="fivear">
          -97 0 70 210 70 hstem
          0 70 70 70 vstem
          210 350 rmoveto
          -210 -350 210 hlineto
          -70 70 rmoveto
          -70 210 70 hlineto
          endchar
        </CharString>
        <CharString name="fourar">
          3 0 70 70 70 70 70 hstemhm
          0 70 50 70 -70 190 hintmask 00000000
          hintmask 11110100
          310 280 rmoveto
          70 vlineto
          hintmask 11111000
          -190 -140 -50 140 -70 -350 hlineto
          hintmask 11110100
          310 70 -240 70 240 70 hlineto
          hintmask 11111000
          -120 70 hlineto
          endchar
        </CharString>
        <CharString name="fourar.1">
          3 21 -21 140 70 70 70 hstem
          0 70 50 70 vstem
          310 280 rmoveto
          70 -190 -140 -50 140 -70 -350 70 140 240 70 -120 70 vlineto
          endchar
        </CharString>
        <CharString name="fourar.2">
          -97 0 70 70 70 70 70 hstemhm
          0 70 -70 210 hintmask 00000000
          hintmask 11101000
          210 280 rmoveto
          70 vlineto
          hintmask 11110000
          -210 -350 hlineto
          hintmask 11101000
          210 70 hlineto
          hintmask 11110000
          -140 70 hlineto
          hintmask 11101000
          140 70 hlineto
          hintmask 11110000
          -140 70 hlineto
          endchar
        </CharString>
        <CharString name="ghainar">
          333 -110 70 40 70 160 -20 30 -20 hstemhm
          0 80 274 62 hintmask 11011100
          446 309 rmoveto
          -17 10 -47 -79 17 -10 rlineto
          -299 -230 rmoveto
          499 hlineto
          41 70 rlineto
          -139 hlineto
          -32 -53 47 31 hvcurveto
          hintmask 11101100
          29 65 38 20 12 vhcurveto
          -1 3 rlineto
          -53 -26 -93 -47 -48 vvcurveto
          -13 6 -13 16 -13 vhcurveto
          -286 hlineto
          -50 -40 -40 -50 -50 40 -40 50 hvcurveto
          445 hlineto
          41 70 rlineto
          -476 hlineto
          -11 -9 9 11 hvcurveto
          hintmask 11011100
          11 9 9 11 vhcurveto
          endchar
        </CharString>
        <CharString name="hahar">
          293 -110 70 40 70 hstem
          0 80 vstem
          100 hmoveto
          459 hlineto
          41 70 rlineto
          -137 hlineto
          -58 -61 65 75 -61 hvcurveto
          -43 -70 19 -28 28 -29 15 -13 rlinecurve
          -212 hlineto
          -50 -40 -40 -50 -50 40 -40 50 hvcurveto
          405 hlineto
          41 70 rlineto
          -436 hlineto
          -11 -9 9 11 11 9 9 11 hvcurveto
          endchar
        </CharString>
        <CharString name="hahar.1">
          313 -110 70 40 70 hstem
          0 80 vstem
          620 70 rmoveto
          -157 hlineto
          -58 -61 65 75 -61 hvcurveto
          -43 -70 19 -28 28 -29 15 -13 rlinecurve
          -212 hlineto
          -50 -40 -40 -50 -50 40 -40 50 hvcurveto
          425 hlineto
          41 70 rlineto
          -456 hlineto
          -11 -9 9 11 11 9 9 11 hvcurveto
          479 hlineto
          endchar
        </CharString>
        <CharString name="hahar.2">
          333 -110 70 40 70 hstem
          0 80 vstem
          100 hmoveto
          499 hlineto
          41 70 rlineto
          -177 hlineto
          -58 -61 65 75 -61 hvcurveto
          -43 -70 19 -28 28 -29 15 -13 rlinecurve
          -212 hlineto
          -50 -40 -40 -50 -50 40 -40 50 hvcurveto
          445 hlineto
          41 70 rlineto
          -476 hlineto
          -11 -9 9 11 11 9 9 11 hvcurveto
          endchar
        </CharString>
        <CharString name="hahar.3">
          143 -250 31 219 70 hstem
          0 80 vstem
          170 hmoveto
          239 hlineto
          41 70 rlineto
          -137 hlineto
          -58 -61 65 75 -61 hvcurveto
          -43 -70 19 -28 28 -29 15 -13 rlinecurve
          -2 hlineto
          -96 -54 -78 -82 -104 86 -56 113 43 46 8 35 76 hvcurveto
          -8 -49 -35 -4 -26 hhcurveto
          -83 -91 36 90 67 50 26 40 hvcurveto
          endchar
        </CharString>
        <CharString name="hahar.4">
          260 -110 70 40 70 0 83 hstemhm
          0 42 hintmask 11010000
          57 67 rmoveto
          52 -52 rlineto
          -10 10 9 -5 12 hhcurveto
          386 hlineto
          41 70 rlineto
          -137 hlineto
          -58 -61 65 75 -61 hvcurveto
          -43 -70 19 -28 28 -29 15 -13 rlinecurve
          -93 hlineto
          -9 -5 5 4 -4 hvcurveto
          -64 64 rlineto
          hintmask 10110000
          -50 50 -44 -149 -49 vvcurveto
          -85 57 -19 74 -1 vhcurveto
          331 hlineto
          41 70 rlineto
          -344 hlineto
          -32 -22 3 23 -23 hvcurveto
          -31 31 rlineto
          hintmask 11010000
          -17 17 9 47 14 -14 rrcurveto
          endchar
        </CharString>
        <CharString name="hahar.5">
          280 -110 70 40 70 0 83 hstemhm
          0 42 hintmask 11010000
          587 70 rmoveto
          -157 hlineto
          -58 -61 65 75 -61 hvcurveto
          -43 -70 19 -28 28 -29 15 -13 rlinecurve
          -93 hlineto
          -9 -5 5 4 -4 hvcurveto
          -64 64 rlineto
          hintmask 10110000
          -50 50 -44 -149 -49 vvcurveto
          -85 57 -19 74 -1 vhcurveto
          351 hlineto
          41 70 rlineto
          -364 hlineto
          -32 -22 3 23 -23 hvcurveto
          -31 31 -17 17 9 47 14 -14 rlinecurve
          hintmask 11010000
          52 -52 rlineto
          -10 10 9 -5 12 hhcurveto
          406 hlineto
          endchar
        </CharString>
        <CharString name="hahar.fina">
          24 -250 31 219 70 160 -20 hstem
          0 80 vstem
          371 70 rmoveto
          -100 hlineto
          -92 160 -59 -57 59 -103 rlineto
          -29 hlineto
          -96 -54 -78 -82 -104 86 -56 113 43 46 8 35 76 hvcurveto
          -8 -49 -35 -4 -26 hhcurveto
          -83 -91 36 90 67 50 26 40 hvcurveto
          50 hlineto
          92 -160 59 57 -59 103 rlineto
          59 hlineto
          endchar
        </CharString>
        <CharString name="hahar.init">
          53 0 70 hstem
          -20 380 vstem
          223 70 rmoveto
          -58 -61 65 75 -61 hvcurveto
          -43 -70 19 -28 28 -29 15 -13 rlinecurve
          -82 -70 339 hlineto
          41 70 rlineto
          endchar
        </CharString>
        <CharString name="hahar.init.1">
          73 0 70 hstem
          -20 400 vstem
          380 70 rmoveto
          -157 hlineto
          -58 -61 65 75 -61 hvcurveto
          -43 -70 19 -28 28 -29 15 -13 rlinecurve
          -82 -70 359 hlineto
          endchar
        </CharString>
        <CharString name="hahar.init.2">
          93 0 70 hstem
          -20 420 vstem
          400 70 rmoveto
          -177 hlineto
          -58 -61 65 75 -61 hvcurveto
          -43 -70 19 -28 28 -29 15 -13 rlinecurve
          -82 -70 379 hlineto
          endchar
        </CharString>
        <CharString name="hahar.medi">
          -156 0 70 160 -20 hstem
          -20 271 vstem
          251 70 rmoveto
          -100 hlineto
          -92 160 -59 -57 59 -103 rlineto
          -79 -70 120 hlineto
          92 -160 59 57 -59 103 rlineto
          59 hlineto
          endchar
        </CharString>
        <CharString name="hamzaabovear">
          0 29 33 25 hstem
          0 125 vstem
          125 29 rmoveto
          -53 hlineto
          -8 -5 7 8 9 7 9 15 5 7 -1 -3 7 hvcurveto
          18 -6 -14 11 -14 hhcurveto
          -32 -14 -32 -26 8 hvcurveto
          -11 hlineto
          -17 -29 rlineto
          108 hlineto
          endchar
        </CharString>
        <CharString name="hamzaar">
          -51 0 50 57 43 hstem
          85 56 vstem
          256 50 rmoveto
          -91 hlineto
          -15 -9 12 14 15 12 16 26 10 11 -2 -5 13 hvcurveto
          32 -10 -25 18 -25 hhcurveto
          -55 -23 -56 -44 13 hvcurveto
          -19 hlineto
          -29 -50 rlineto
          186 hlineto
          endchar
        </CharString>
        <CharString name="hamzabelowar">
          0 29 33 25 hstem
          0 125 vstem
          125 29 rmoveto
          -53 hlineto
          -8 -5 7 8 9 7 9 15 5 7 -1 -3 7 hvcurveto
          18 -6 -14 11 -14 hhcurveto
          -32 -14 -32 -26 8 hvcurveto
          -11 hlineto
          -17 -29 rlineto
          108 hlineto
          endchar
        </CharString>
        <CharString name="hehar">
          -107 0 70 40 70 hstem
          0 80 40 80 vstem
          100 180 rmoveto
          -55 -45 -40 -50 -60 45 -30 55 65 35 30 60 hvcurveto
          130 vlineto
          -35 -20 -40 -5 -40 hhcurveto
          -110 vmoveto
          -11 -9 9 11 11 9 9 11 11 9 -9 -11 -11 -9 -9 -11 hvcurveto
          endchar
        </CharString>
        <CharString name="hehar.1">
          -107 0 70 40 70 hstem
          0 80 40 80 vstem
          120 310 rmoveto
          -129 vlineto
          -1 -7 -6 0 -7 hhcurveto
          -55 -45 -40 -50 -60 45 -30 55 65 35 30 60 hvcurveto
          240 vlineto
          -100 -260 rmoveto
          -11 -9 9 11 11 9 9 11 11 9 -9 -11 -11 -9 -9 -11 hvcurveto
          endchar
        </CharString>
        <CharString name="hehar.2">
          -107 0 70 40 70 380 -20 hstem
          0 80 40 80 vstem
          120 540 rmoveto
          -359 vlineto
          -1 -7 -6 0 -7 hhcurveto
          -55 -45 -40 -50 -60 45 -30 55 65 35 30 60 hvcurveto
          470 vlineto
          -100 -490 rmoveto
          -11 -9 9 11 11 9 9 11 11 9 -9 -11 -11 -9 -9 -11 hvcurveto
          endchar
        </CharString>
        <CharString name="hehar.fina">
          -107 0 70 40 70 hstem
          0 80 40 80 vstem
          200 70 rmoveto
          150 vlineto
          -35 -20 -40 -5 -40 hhcurveto
          -55 -45 -40 -50 -60 45 -30 55 hvcurveto
          140 70 hlineto
          -160 20 rmoveto
          11 9 9 11 11 9 -9 -11 -11 -9 -9 -11 -11 -9 9 11 vhcurveto
          endchar
        </CharString>
        <CharString name="hehar.fina.1">
          -107 0 70 40 70 hstem
          0 80 40 80 vstem
          200 70 rmoveto
          260 vlineto
          -80 -20 rlineto
          -129 vlineto
          -1 -7 -6 0 -7 hhcurveto
          -55 -45 -40 -50 -60 45 -30 55 hvcurveto
          140 70 hlineto
          -160 20 rmoveto
          11 9 9 11 11 9 -9 -11 -11 -9 -9 -11 -11 -9 9 11 vhcurveto
          endchar
        </CharString>
        <CharString name="hehar.fina.2">
          -107 0 70 40 70 380 -20 hstem
          0 80 40 80 vstem
          200 70 rmoveto
          490 vlineto
          -80 -20 rlineto
          -359 vlineto
          -1 -7 -6 0 -7 hhcurveto
          -55 -45 -40 -50 -60 45 -30 55 hvcurveto
          140 70 hlineto
          -160 20 rmoveto
          11 9 9 11 11 9 -9 -11 -11 -9 -9 -11 -11 -9 9 11 vhcurveto
          endchar
        </CharString>
        <CharString name="hehar.init">
          -107 -110 70 40 70 40 70 hstem
          0 80 40 80 vstem
          100 180 rmoveto
          -55 -45 -40 -50 -7 1 -7 1 -6 hvcurveto
          -52 -70 52 hlineto
          -1 -6 -1 -7 -7 vvcurveto
          -60 45 -30 55 65 35 30 60 vhcurveto
          235 vlineto
          -35 -20 -40 0 -40 hhcurveto
          -20 -90 rmoveto
          11 9 9 11 11 9 -9 -11 -11 -9 -9 -11 -11 -9 9 11 vhcurveto
          20 -130 rmoveto
          -11 -9 9 11 11 9 9 11 11 9 -9 -11 -11 -9 -9 -11 hvcurveto
          endchar
        </CharString>
        <CharString name="hehar.init.1">
          -107 -110 70 40 70 40 70 51 -20 hstem
          0 80 40 80 vstem
          120 231 rmoveto
          -51 -20 vlineto
          -55 -45 -40 -50 -7 1 -7 1 -6 hvcurveto
          -52 -70 52 hlineto
          -1 -6 -1 -7 -7 vvcurveto
          -60 45 -30 55 65 35 30 60 vhcurveto
          271 vlineto
          -120 -161 rmoveto
          11 9 9 11 11 9 -9 -11 -11 -9 -9 -11 -11 -9 9 11 vhcurveto
          20 -130 rmoveto
          -11 -9 9 11 11 9 9 11 11 9 -9 -11 -11 -9 -9 -11 hvcurveto
          endchar
        </CharString>
        <CharString name="hehar.init.2">
          -107 0 70 40 20 40 70 hstemhm
          -20 220 -200 80 40 80 hintmask 11101100
          100 240 rmoveto
          -55 -45 -40 -50 -10 2 -11 4 -9 hvcurveto
          -4 -9 -2 -11 -10 vvcurveto
          -7 1 -7 1 -6 vhcurveto
          hintmask 11110000
          -22 -70 hlineto
          hintmask 11101100
          199 hlineto
          6 15 0 11 hvcurveto
          264 vlineto
          -35 -20 -40 0 -40 hhcurveto
          -70 vmoveto
          11 9 -9 -11 -11 -9 -9 -11 -11 -9 9 11 11 9 9 11 hvcurveto
          -20 -80 rmoveto
          11 9 9 11 11 9 -9 -11 -11 -9 -9 -11 -11 -9 9 11 vhcurveto
          endchar
        </CharString>
        <CharString name="hehar.init.3">
          -107 0 70 40 20 40 70 hstem
          0 80 40 80 vstem
          120 290 rmoveto
          -50 -20 vlineto
          -55 -45 -40 -50 -10 2 -11 4 -9 hvcurveto
          -4 -9 -2 -11 -10 vvcurveto
          -7 1 -7 1 -6 vhcurveto
          -22 -70 199 hlineto
          6 15 0 11 hvcurveto
          299 vlineto
          -100 -140 rmoveto
          11 9 -9 -11 -11 -9 -9 -11 -11 -9 9 11 11 9 9 11 hvcurveto
          -20 -80 rmoveto
          11 9 9 11 11 9 -9 -11 -11 -9 -9 -11 -11 -9 9 11 vhcurveto
          endchar
        </CharString>
        <CharString name="hehar.init.4">
          -107 0 70 36 8 36 70 hstemhm
          -20 220 -202 82 -82 202 -80 80 hintmask 11101010
          120 220 rmoveto
          hintmask 11100100
          -65 -57 -32 -72 -19 4 -15 6 -12 hvcurveto
          hintmask 11110000
          -28 -70 hlineto
          hintmask 11101010
          199 hlineto
          6 15 0 11 hvcurveto
          244 vlineto
          -35 -20 -20 0 -40 hhcurveto
          -70 vmoveto
          -20 -2 -17 -16 -21 hhcurveto
          20 2 17 16 21 hhcurveto
          -80 vmoveto
          -21 -17 16 20 -2 hvcurveto
          21 17 -16 -20 2 hvcurveto
          endchar
        </CharString>
        <CharString name="hehar.init.5">
          -107 0 70 36 8 36 70 hstem
          -2 82 40 80 vstem
          120 270 rmoveto
          -50 vlineto
          -65 -57 -32 -72 -19 4 -15 6 -12 hvcurveto
          -28 -70 199 hlineto
          6 15 0 11 hvcurveto
          279 vlineto
          -80 -140 rmoveto
          -20 -2 -17 -16 -21 hhcurveto
          20 2 17 16 21 hhcurveto
          -80 vmoveto
          -21 -17 16 20 -2 hvcurveto
          21 17 -16 -20 2 hvcurveto
          endchar
        </CharString>
        <CharString name="hehar.init.6">
          -107 0 70 160 -20 hstemhm
          -20 220 -200 200 -80 80 hintmask 11001000
          120 230 rmoveto
          hintmask 11010000
          -74 -46 -40 -63 -23 6 -20 6 -14 hvcurveto
          hintmask 11100000
          -32 -70 hlineto
          hintmask 11001000
          199 hlineto
          6 15 0 11 hvcurveto
          254 vlineto
          -28 -16 -24 -7 -40 hhcurveto
          -100 vmoveto
          -40 -10 9 40 rlineto
          31 -50 rmoveto
          -9 -40 -31 30 rlineto
          endchar
        </CharString>
        <CharString name="hehar.init.7">
          -107 0 70 160 -20 hstem
          120 80 vstem
          120 280 rmoveto
          -50 vlineto
          -74 -46 -40 -63 -23 6 -20 6 -14 hvcurveto
          -32 -70 199 hlineto
          6 15 0 11 hvcurveto
          289 vlineto
          -80 -170 rmoveto
          -40 -10 9 40 rlineto
          31 -50 rmoveto
          -9 -40 -31 30 rlineto
          endchar
        </CharString>
        <CharString name="hehar.medi">
          -107 -110 70 40 70 40 70 hstem
          0 80 40 80 vstem
          240 70 rmoveto
          -40 145 hlineto
          -35 -20 -40 0 -40 hhcurveto
          -55 -45 -40 -50 -7 1 -7 1 -6 hvcurveto
          -52 -70 52 hlineto
          -1 -6 -1 -7 -7 vvcurveto
          -60 45 -30 55 65 35 30 60 vhcurveto
          20 40 vlineto
          -140 110 rmoveto
          11 9 -9 -11 -11 -9 -9 -11 -11 -9 9 11 11 9 9 11 hvcurveto
          -150 vmoveto
          -11 -9 9 11 11 9 9 11 11 9 -9 -11 -11 -9 -9 -11 hvcurveto
          endchar
        </CharString>
        <CharString name="hehar.medi.1">
          -107 -110 70 40 70 40 70 51 -20 hstem
          0 80 40 80 vstem
          240 70 rmoveto
          -40 181 hlineto
          -80 -20 rlineto
          -51 -20 vlineto
          -55 -45 -40 -50 -7 1 -7 1 -6 hvcurveto
          -52 -70 52 hlineto
          -1 -6 -1 -7 -7 vvcurveto
          -60 45 -30 55 65 35 30 60 vhcurveto
          20 40 vlineto
          -140 110 rmoveto
          11 9 -9 -11 -11 -9 -9 -11 -11 -9 9 11 11 9 9 11 hvcurveto
          -150 vmoveto
          -11 -9 9 11 11 9 9 11 11 9 -9 -11 -11 -9 -9 -11 hvcurveto
          endchar
        </CharString>
        <CharString name="hehar.medi.2">
          -107 0 70 40 20 40 70 hstem
          0 80 40 80 vstem
          200 70 rmoveto
          205 vlineto
          -35 -20 -40 0 -40 hhcurveto
          -55 -45 -40 -50 -10 2 -11 4 -9 hvcurveto
          -4 -9 -2 -11 -10 vvcurveto
          -7 1 -7 1 -6 vhcurveto
          -22 -70 199 hlineto
          61 70 hlineto
          -140 100 rmoveto
          11 9 -9 -11 -11 -9 -9 -11 -11 -9 9 11 11 9 9 11 hvcurveto
          -20 -80 rmoveto
          11 9 9 11 11 9 -9 -11 -11 -9 -9 -11 -11 -9 9 11 vhcurveto
          endchar
        </CharString>
        <CharString name="hehar.medi.3">
          -107 0 70 40 20 40 70 hstem
          0 80 40 80 vstem
          200 70 rmoveto
          240 vlineto
          -80 -20 rlineto
          -50 -20 vlineto
          -55 -45 -40 -50 -10 2 -11 4 -9 hvcurveto
          -4 -9 -2 -11 -10 vvcurveto
          -7 1 -7 1 -6 vhcurveto
          -22 -70 199 hlineto
          61 70 hlineto
          -140 100 rmoveto
          11 9 -9 -11 -11 -9 -9 -11 -11 -9 9 11 11 9 9 11 hvcurveto
          -20 -80 rmoveto
          11 9 9 11 11 9 -9 -11 -11 -9 -9 -11 -11 -9 9 11 vhcurveto
          endchar
        </CharString>
        <CharString name="hehar.medi.4">
          -107 0 70 36 8 36 70 hstemhm
          -2 82 -82 202 -80 80 hintmask 11110100
          200 70 rmoveto
          185 vlineto
          -35 -20 -20 0 -40 hhcurveto
          hintmask 11101000
          -65 -57 -32 -72 -19 4 -15 6 -12 hvcurveto
          -28 -70 hlineto
          hintmask 11110100
          199 hlineto
          61 70 hlineto
          -120 80 rmoveto
          -20 -2 -17 -16 -21 hhcurveto
          20 2 17 16 21 hhcurveto
          -80 vmoveto
          -21 -17 16 20 -2 hvcurveto
          21 17 -16 -20 2 hvcurveto
          endchar
        </CharString>
        <CharString name="hehar.medi.5">
          -107 0 70 36 8 36 70 hstem
          -2 82 40 80 vstem
          200 70 rmoveto
          220 vlineto
          -80 -20 rlineto
          -50 vlineto
          -65 -57 -32 -72 -19 4 -15 6 -12 hvcurveto
          -28 -70 199 hlineto
          61 70 hlineto
          -120 80 rmoveto
          -20 -2 -17 -16 -21 hhcurveto
          20 2 17 16 21 hhcurveto
          -80 vmoveto
          -21 -17 16 20 -2 hvcurveto
          21 17 -16 -20 2 hvcurveto
          endchar
        </CharString>
        <CharString name="hehar.medi.6">
          -107 0 70 160 -20 hstemhm
          -20 220 -200 200 -80 80 hintmask 11001000
          200 70 rmoveto
          195 vlineto
          -28 -16 -24 -7 -40 hhcurveto
          hintmask 11010000
          -74 -46 -40 -63 -23 6 -20 6 -14 hvcurveto
          hintmask 11100000
          -32 -70 hlineto
          hintmask 11001000
          199 hlineto
          61 70 hlineto
          -120 60 rmoveto
          -40 -10 9 40 rlineto
          31 -50 rmoveto
          -9 -40 -31 30 rlineto
          endchar
        </CharString>
        <CharString name="hehar.medi.7">
          -107 0 70 160 -20 hstem
          120 80 vstem
          200 70 rmoveto
          230 vlineto
          -80 -20 rlineto
          -50 vlineto
          -74 -46 -40 -63 -23 6 -20 6 -14 hvcurveto
          -32 -70 199 hlineto
          61 70 hlineto
          -120 60 rmoveto
          -40 -10 9 40 rlineto
          31 -50 rmoveto
          -9 -40 -31 30 rlineto
          endchar
        </CharString>
        <CharString name="jeemar">
          293 -110 70 40 70 hstem
          0 80 vstem
          100 hmoveto
          459 hlineto
          41 70 rlineto
          -137 hlineto
          -58 -61 65 75 -61 hvcurveto
          -43 -70 19 -28 28 -29 15 -13 rlinecurve
          -212 hlineto
          -50 -40 -40 -50 -50 40 -40 50 hvcurveto
          405 hlineto
          41 70 rlineto
          -436 hlineto
          -11 -9 9 11 11 9 9 11 hvcurveto
          153 -224 rmoveto
          17 -10 47 79 -17 10 rlineto
          endchar
        </CharString>
        <CharString name="kafar">
          293 0 70 40 70 380 -20 hstem
          40 80 396 84 vstem
          486 180 rmoveto
          -366 380 hlineto
          -80 -20 rlineto
          -430 436 vlineto
          22 18 -18 -22 hvcurveto
          -476 hlineto
          -40 -70 rlineto
          579 hlineto
          6 15 0 21 139 -70 20 -44 hvcurveto
          endchar
        </CharString>
        <CharString name="kafar.1">
          293 0 70 40 70 380 -20 hstem
          111 78 327 84 vstem
          486 180 rmoveto
          -360 hlineto
          41 74 22 88 101 vvcurveto
          37 -3 39 -6 41 vhcurveto
          -80 -80 rlineto
          7 -40 4 -42 -43 vvcurveto
          -83 -15 -85 -34 -77 vhcurveto
          414 hlineto
          22 18 -18 -22 hvcurveto
          -476 hlineto
          -40 -70 rlineto
          579 hlineto
          6 15 0 21 139 -70 20 -44 hvcurveto
          endchar
        </CharString>
        <CharString name="kafar.2">
          293 0 70 40 70 hstem
          516 84 vstem
          486 180 rmoveto
          -366 hlineto
          27 70 rlineto
          -3 hlineto
          -80 -140 rlineto
          412 hlineto
          22 18 -18 -22 hvcurveto
          -476 hlineto
          -40 -70 rlineto
          579 hlineto
          6 15 0 21 139 -70 20 -44 hvcurveto
          endchar
        </CharString>
        <CharString name="kafar.fina">
          293 0 70 40 70 380 -20 hstem
          40 80 396 124 vstem
          597 70 rmoveto
          95 -15 -58 15 -38 hhcurveto
          -366 380 hlineto
          -80 -20 rlineto
          -430 436 vlineto
          22 18 -18 -22 hvcurveto
          -476 hlineto
          -40 -70 rlineto
          640 70 hlineto
          endchar
        </CharString>
        <CharString name="kafar.fina.1">
          293 0 70 40 70 380 -20 hstem
          111 78 327 124 vstem
          597 70 rmoveto
          95 -15 -58 15 -38 hhcurveto
          -360 hlineto
          41 74 22 88 101 vvcurveto
          37 -3 39 -6 41 vhcurveto
          -80 -80 rlineto
          7 -40 4 -42 -43 vvcurveto
          -83 -15 -85 -34 -77 vhcurveto
          414 hlineto
          22 18 -18 -22 hvcurveto
          -476 hlineto
          -40 -70 rlineto
          640 70 hlineto
          endchar
        </CharString>
        <CharString name="kafar.fina.2">
          293 0 70 40 70 hstemhm
          0 640 -124 124 hintmask 11100000
          597 70 rmoveto
          95 -15 -58 15 -38 hhcurveto
          -366 hlineto
          27 70 rlineto
          -3 hlineto
          -80 -140 rlineto
          hintmask 11010000
          412 hlineto
          22 18 -18 -22 hvcurveto
          -476 hlineto
          -40 -70 rlineto
          640 70 hlineto
          endchar
        </CharString>
        <CharString name="kafar.init">
          233 0 70 40 70 hstem
          456 84 vstem
          426 180 rmoveto
          -370 hlineto
          27 70 rlineto
          -3 hlineto
          -80 -140 rlineto
          416 hlineto
          22 18 -18 -22 hvcurveto
          -476 -70 539 hlineto
          6 15 0 21 139 -70 20 -44 hvcurveto
          endchar
        </CharString>
        <CharString name="kafar.init.1">
          253 0 70 40 70 380 -20 hstem
          73 77 326 84 vstem
          446 180 rmoveto
          -360 hlineto
          62 111 14 132 -22 137 -80 -80 rcurveline
          25 -125 -11 -134 -52 -111 rrcurveto
          414 hlineto
          22 18 -18 -22 hvcurveto
          -494 -70 557 hlineto
          6 15 0 21 139 -70 20 -44 hvcurveto
          endchar
        </CharString>
        <CharString name="kafar.init.2">
          253 0 70 40 70 380 -20 hstem
          0 80 396 84 vstem
          446 180 rmoveto
          -366 380 hlineto
          -80 -20 rlineto
          -430 436 vlineto
          22 18 -18 -22 hvcurveto
          -496 -70 559 hlineto
          6 15 0 21 139 -70 20 -44 hvcurveto
          endchar
        </CharString>
        <CharString name="kafar.medi">
          233 0 70 40 70 hstemhm
          -20 600 -124 124 hintmask 11100000
          537 70 rmoveto
          95 -15 -58 15 -38 hhcurveto
          -370 hlineto
          27 70 rlineto
          -3 hlineto
          -80 -140 rlineto
          hintmask 11010000
          416 hlineto
          22 18 -18 -22 hvcurveto
          -476 -70 600 70 hlineto
          endchar
        </CharString>
        <CharString name="kafar.medi.1">
          253 0 70 40 70 380 -20 hstem
          0 80 396 124 vstem
          557 70 rmoveto
          95 -15 -58 15 -38 hhcurveto
          -366 380 hlineto
          -80 -20 rlineto
          -430 436 vlineto
          22 18 -18 -22 hvcurveto
          -496 -70 620 70 hlineto
          endchar
        </CharString>
        <CharString name="kafar.medi.2">
          253 0 70 40 70 380 -20 hstem
          73 77 326 124 vstem
          557 70 rmoveto
          95 -15 -58 15 -38 hhcurveto
          -360 hlineto
          62 111 14 132 -22 137 -80 -80 rcurveline
          25 -125 -11 -134 -52 -111 rrcurveto
          414 hlineto
          22 18 -18 -22 hvcurveto
          -494 -70 618 70 hlineto
          endchar
        </CharString>
        <CharString name="kashidaar">
          -267 0 70 hstem
          -20 100 vstem
          -20 hmoveto
          100 70 -100 hlineto
          endchar
        </CharString>
        <CharString name="khahar">
          293 -110 70 40 70 172 -20 hstem
          0 80 vstem
          556 242 rmoveto
          -17 10 -47 -79 17 -10 rlineto
          -409 -163 rmoveto
          459 hlineto
          41 70 rlineto
          -137 hlineto
          -58 -61 65 75 -61 hvcurveto
          -43 -70 19 -28 28 -29 15 -13 rlinecurve
          -212 hlineto
          -50 -40 -40 -50 -50 40 -40 50 hvcurveto
          405 hlineto
          41 70 rlineto
          -436 hlineto
          -11 -9 9 11 11 9 9 11 hvcurveto
          endchar
        </CharString>
        <CharString name="lam_alefar">
          13 0 70 490 -20 hstemhm
          230 92 hintmask 00000000
          hintmask 11100000
          322 560 rmoveto
          -92 -40 -3 -102 -17 -83 -36 -81 rlinecurve
          -154 266 -60 -57 169 -293 -33 -55 -43 -55 -53 -60 rlinecurve
          320 hlineto
          -114 197 65 109 39 134 12 120 rlinecurve
          -135 -490 rmoveto
          -81 hlineto
          18 16 16 18 16 20 rrcurveto
          endchar
        </CharString>
        <CharString name="lam_alefar.1">
          -92 0 70 490 -20 hstem
          0 80 55 80 vstem
          172 182 rmoveto
          -92 66 rlineto
          312 vlineto
          -80 -20 rlineto
          -234 vlineto
          -213 154 -29 -77 242 -175 rlineto
          -208 215 100 vlineto
          29 -13 31 -30 22 vhcurveto
          -92 -112 rmoveto
          80 vlineto
          46 -33 rlineto
          4 -4 5 -5 -8 vvcurveto
          -30 vlineto
          endchar
        </CharString>
        <CharString name="lam_alefar.2">
          -27 0 60 500 -20 hstem
          40 80 40 80 vstem
          280 hmoveto
          -108 142 68 68 rlineto
          350 vlineto
          -80 -20 rlineto
          -330 vlineto
          -20 -26 -20 26 rlineto
          350 vlineto
          -80 -20 rlineto
          -330 vlineto
          68 -68 -108 -142 rlineto
          180 70 rmoveto
          -17 -13 -46 0 -17 13 40 40 rcurveline
          endchar
        </CharString>
        <CharString name="lam_alefar.3">
          -27 0 60 500 -20 hstem
          40 80 40 80 vstem
          280 hmoveto
          -108 142 68 68 rlineto
          350 vlineto
          -80 -20 rlineto
          -330 vlineto
          -20 -26 -20 26 rlineto
          320 vlineto
          -80 -20 rlineto
          -300 vlineto
          68 -68 -108 -142 rlineto
          180 70 rmoveto
          -17 -13 -46 0 -17 13 40 40 rcurveline
          endchar
        </CharString>
        <CharString name="lam_alefar.4">
          53 0 70 490 -20 hstem
          80 80 40 80 vstem
          0 vmoveto
          360 hlineto
          -46 34 -62 54 -42 52 41 41 rcurveline
          13 13 16 18 23 vvcurveto
          325 vlineto
          -80 -20 rlineto
          -305 vlineto
          -16 -8 -18 -12 -21 vhcurveto
          -12 21 -8 18 16 vvcurveto
          325 vlineto
          -80 -20 rlineto
          -305 vlineto
          -18 16 -23 13 -13 vhcurveto
          41 -41 -42 -52 -62 -54 -46 -34 rlinecurve
          180 110 rmoveto
          40 -40 rlineto
          -80 hlineto
          endchar
        </CharString>
        <CharString name="lam_alefar.5">
          53 0 70 490 -20 hstem
          80 80 40 80 vstem
          0 vmoveto
          360 hlineto
          -46 34 -62 54 -42 52 41 41 rcurveline
          13 13 16 18 23 vvcurveto
          325 vlineto
          -80 -20 rlineto
          -305 vlineto
          -16 -8 -18 -12 -21 vhcurveto
          -12 21 -8 18 16 vvcurveto
          295 vlineto
          -80 -20 rlineto
          -275 vlineto
          -18 16 -23 13 -13 vhcurveto
          41 -41 -42 -52 -62 -54 -46 -34 rlinecurve
          180 110 rmoveto
          40 -40 rlineto
          -80 hlineto
          endchar
        </CharString>
        <CharString name="lam_alefar.fina">
          13 0 70 490 -20 hstemhm
          -40 400 -130 92 hintmask 11100000
          280 70 rmoveto
          -74 127 rlineto
          hintmask 11010000
          65 109 39 134 12 120 -92 -40 rcurveline
          -3 -102 -17 -83 -36 -81 -154 266 rcurveline
          -60 -57 169 -293 -33 -55 -43 -55 -53 -60 rlinecurve
          360 70 hlineto
          -254 hmoveto
          18 16 16 18 16 20 31 -54 rcurveline
          endchar
        </CharString>
        <CharString name="lam_alefar.fina.1">
          -92 0 70 490 -20 hstem
          0 80 55 80 vstem
          215 70 rmoveto
          30 vlineto
          29 -13 31 -30 22 vhcurveto
          -92 66 rlineto
          312 vlineto
          -80 -20 rlineto
          -234 vlineto
          -213 154 -29 -77 242 -175 rlineto
          -208 255 70 vlineto
          -175 hmoveto
          80 vlineto
          46 -33 rlineto
          4 -4 5 -5 -8 vvcurveto
          -30 vlineto
          endchar
        </CharString>
        <CharString name="lam_alefar.fina.2">
          -27 0 60 -60 70 490 -20 hstemhm
          40 80 40 80 hintmask 00000000
          hintmask 01111000
          227 70 rmoveto
          -55 72 68 68 rlineto
          350 vlineto
          -80 -20 rlineto
          -330 vlineto
          -20 -26 -20 26 rlineto
          350 vlineto
          -80 -20 rlineto
          -330 vlineto
          68 -68 rlineto
          hintmask 10111000
          -108 -142 rlineto
          320 hlineto
          hintmask 01111000
          70 vlineto
          -220 hmoveto
          40 40 40 -40 -17 -13 -46 0 -17 13 rlinecurve
          endchar
        </CharString>
        <CharString name="lam_alefar.fina.3">
          -27 0 60 -60 70 490 -20 hstemhm
          40 80 40 80 hintmask 00000000
          hintmask 01111000
          227 70 rmoveto
          -55 72 68 68 rlineto
          350 vlineto
          -80 -20 rlineto
          -330 vlineto
          -20 -26 -20 26 rlineto
          320 vlineto
          -80 -20 rlineto
          -300 vlineto
          68 -68 rlineto
          hintmask 10111000
          -108 -142 rlineto
          320 hlineto
          hintmask 01111000
          70 vlineto
          -220 hmoveto
          40 40 40 -40 -17 -13 -46 0 -17 13 rlinecurve
          endchar
        </CharString>
        <CharString name="lam_alefar.fina.4">
          53 0 70 490 -20 hstem
          80 80 40 80 vstem
          276 70 rmoveto
          -24 22 -23 24 -19 24 41 41 rcurveline
          13 13 16 18 23 vvcurveto
          325 vlineto
          -80 -20 rlineto
          -305 vlineto
          -16 -8 -18 -12 -21 vhcurveto
          -12 21 -8 18 16 vvcurveto
          325 vlineto
          -80 -20 rlineto
          -305 vlineto
          -18 16 -23 13 -13 vhcurveto
          41 -41 -42 -52 -62 -54 -46 -34 rlinecurve
          400 70 hlineto
          -260 hmoveto
          40 40 40 -40 rlineto
          endchar
        </CharString>
        <CharString name="lam_alefar.fina.5">
          53 0 70 490 -20 hstem
          80 80 40 80 vstem
          276 70 rmoveto
          -24 22 -23 24 -19 24 41 41 rcurveline
          13 13 16 18 23 vvcurveto
          325 vlineto
          -80 -20 rlineto
          -305 vlineto
          -16 -8 -18 -12 -21 vhcurveto
          -12 21 -8 18 16 vvcurveto
          295 vlineto
          -80 -20 rlineto
          -275 vlineto
          -18 16 -23 13 -13 vhcurveto
          41 -41 -42 -52 -62 -54 -46 -34 rlinecurve
          400 70 hlineto
          -260 hmoveto
          40 40 40 -40 rlineto
          endchar
        </CharString>
        <CharString name="lamar">
          -157 -250 70 740 -20 hstem
          70 80 vstem
          70 540 rmoveto
          -720 -100 vlineto
          -20 -17 5 15 -11 hvcurveto
          -52 -90 rlineto
          242 hlineto
          23 15 15 25 hvcurveto
          770 vlineto
          endchar
        </CharString>
        <CharString name="lamar.fina">
          -157 -250 70 180 70 490 -20 hstem
          70 80 vstem
          190 70 rmoveto
          -22 -18 18 22 hvcurveto
          450 vlineto
          -80 -20 rlineto
          -720 -100 vlineto
          -20 -17 5 15 -11 hvcurveto
          -52 -90 rlineto
          242 hlineto
          23 15 15 25 hvcurveto
          210 40 vlineto
          endchar
        </CharString>
        <CharString name="lamar.init">
          -227 0 70 490 -20 hstem
          0 80 vstem
          -20 hmoveto
          62 hlineto
          23 15 15 25 hvcurveto
          520 vlineto
          -80 -20 rlineto
          -470 -20 vlineto
          endchar
        </CharString>
        <CharString name="lamar.init.hah">
          -267 0 25 hstem
          0 80 vstem
          -20 hmoveto
          57 43 30 40 hvcurveto
          380 vlineto
          -80 -20 rlineto
          -360 vlineto
          -19 0 -26 -20 vhcurveto
          endchar
        </CharString>
        <CharString name="lamar.init.lellah">
          -227 0 70 hstem
          0 80 vstem
          510 vmoveto
          -440 -20 -70 62 vlineto
          23 15 15 25 hvcurveto
          490 vlineto
          endchar
        </CharString>
        <CharString name="lamar.medi">
          -227 0 70 490 -20 hstem
          0 80 vstem
          80 110 rmoveto
          450 vlineto
          -80 -20 rlineto
          -470 -20 -70 140 70 vlineto
          -22 -18 18 22 hvcurveto
          endchar
        </CharString>
        <CharString name="lamar.medi.lellah">
          -227 0 70 hstem
          0 80 vstem
          80 110 rmoveto
          390 vlineto
          -80 -20 rlineto
          -410 -20 -70 140 70 vlineto
          -22 -18 18 22 hvcurveto
          endchar
        </CharString>
        <CharString name="meemar">
          93 0 70 -70 180 -70 70 hstemhm
          200 80 40 80 hintmask 00000000
          hintmask 01011000
          300 180 rmoveto
          -55 -45 -40 -50 hvcurveto
          hintmask 10111000
          -7 1 -7 1 -6 vhcurveto
          -102 hlineto
          -20 -17 5 15 -11 hvcurveto
          -52 -90 rlineto
          300 hlineto
          65 35 30 60 hvcurveto
          hintmask 01011000
          50 -45 40 -55 vhcurveto
          hintmask 10111000
          -110 vmoveto
          -11 -9 9 11 11 9 9 11 11 9 -9 -11 -11 -9 -9 -11 hvcurveto
          endchar
        </CharString>
        <CharString name="meemar.1">
          -67 0 70 -70 180 -70 70 hstemhm
          40 80 40 80 hintmask 00000000
          hintmask 01011000
          140 180 rmoveto
          -55 -45 -40 -50 hvcurveto
          hintmask 10111000
          -40 -5 -30 -35 -20 vhcurveto
          140 hlineto
          65 35 30 60 hvcurveto
          hintmask 01011000
          50 -45 40 -55 vhcurveto
          hintmask 10111000
          -110 vmoveto
          -11 -9 9 11 11 9 9 11 11 9 -9 -11 -11 -9 -9 -11 hvcurveto
          endchar
        </CharString>
        <CharString name="meemar.2">
          -69 -40 70 -9 -21 70 70 hstemhm
          158 80 hintmask 01110000
          138 140 rmoveto
          -53 -44 -37 -48 -3 hvcurveto
          -4 -23 -10 -18 -24 -14 rrcurveto
          52 hlineto
          hintmask 10110000
          -27 17 32 -13 37 hhcurveto
          65 35 30 60 hvcurveto
          hintmask 01110000
          50 -45 40 -55 vhcurveto
          hintmask 10110000
          -110 vmoveto
          -11 -9 9 11 11 9 9 11 11 9 -9 -11 -11 -9 -9 -11 hvcurveto
          endchar
        </CharString>
        <CharString name="meemar.fina">
          93 0 70 -70 180 -70 70 hstemhm
          200 80 40 80 -80 120 hintmask 10111000
          399 70 rmoveto
          hintmask 01011000
          1 6 0 7 7 vvcurveto
          50 -45 40 -55 -55 -45 -40 -50 vhcurveto
          hintmask 10110100
          -7 1 -7 1 -6 vhcurveto
          -102 hlineto
          -20 -17 5 15 -11 hvcurveto
          -52 -90 rlineto
          440 70 hlineto
          -160 20 rmoveto
          11 9 9 11 vhcurveto
          hintmask 10111000
          11 9 -9 -11 -11 -9 -9 -11 hvcurveto
          hintmask 10110100
          -11 -9 9 11 hvcurveto
          endchar
        </CharString>
        <CharString name="meemar.fina.1">
          -67 0 70 -70 180 -70 70 hstemhm
          40 80 40 80 -80 120 hintmask 10111000
          239 70 rmoveto
          hintmask 01011000
          1 6 0 7 7 vvcurveto
          50 -45 40 -55 -55 -45 -40 -50 vhcurveto
          hintmask 10110100
          -40 -5 -30 -35 -20 vhcurveto
          280 70 hlineto
          -160 20 rmoveto
          11 9 9 11 vhcurveto
          hintmask 10111000
          11 9 -9 -11 -11 -9 -9 -11 hvcurveto
          hintmask 10110100
          -11 -9 9 11 hvcurveto
          endchar
        </CharString>
        <CharString name="meemar.fina.2">
          -69 -40 70 -30 70 0 70 hstemhm
          158 120 hintmask 01010000
          278 70 rmoveto
          -42 hlineto
          hintmask 00110000
          40 -11 -40 30 -47 hhcurveto
          -53 -44 -37 -48 -3 hvcurveto
          hintmask 01010000
          -4 -23 -10 -18 -24 -14 rrcurveto
          52 hlineto
          hintmask 10010000
          -27 17 32 -13 37 hhcurveto
          hintmask 01010000
          43 30 13 27 16 hvcurveto
          51 hlineto
          hintmask 10110000
          -140 30 rmoveto
          -11 -9 9 11 11 9 9 11 11 9 -9 -11 -11 -9 -9 -11 hvcurveto
          endchar
        </CharString>
        <CharString name="meemar.init">
          -107 0 70 -70 180 -70 70 hstemhm
          -20 100 -80 80 40 80 hintmask 00000000
          hintmask 01001100
          100 180 rmoveto
          -55 -45 -40 -50 hvcurveto
          hintmask 10101100
          -7 1 -7 1 -6 vhcurveto
          hintmask 10110100
          -22 -70 120 hlineto
          65 35 30 60 hvcurveto
          hintmask 01001100
          50 -45 40 -55 vhcurveto
          hintmask 10101100
          -110 vmoveto
          -11 -9 9 11 11 9 9 11 11 9 -9 -11 -11 -9 -9 -11 hvcurveto
          endchar
        </CharString>
        <CharString name="meemar.medi">
          -107 0 70 40 70 hstemhm
          -20 100 -80 80 40 80 -80 120 hintmask 11011000
          199 70 rmoveto
          1 6 0 7 7 vvcurveto
          50 -45 40 -55 -55 -45 -40 -50 -7 1 -7 1 -6 vhcurveto
          hintmask 11100100
          -22 -70 260 70 hlineto
          hintmask 11011000
          -160 20 rmoveto
          11 9 9 11 11 9 -9 -11 -11 -9 -9 -11 -11 -9 9 11 vhcurveto
          endchar
        </CharString>
        <CharString name="meemar.medi.1">
          -107 -40 70 -30 70 0 70 hstemhm
          -20 100 40 120 hintmask 01011000
          240 70 rmoveto
          -42 hlineto
          hintmask 00111000
          40 -11 -40 30 -47 hhcurveto
          hintmask 01011000
          -47 -40 -30 -40 -11 hvcurveto
          -22 -70 31 hlineto
          hintmask 10011000
          -27 16 30 -13 43 hhcurveto
          hintmask 01011000
          43 30 13 27 16 hvcurveto
          51 hlineto
          hintmask 10111000
          -140 30 rmoveto
          -11 -9 9 11 11 9 9 11 11 9 -9 -11 -11 -9 -9 -11 hvcurveto
          endchar
        </CharString>
        <CharString name="ninear">
          -97 21 -21 140 70 70 70 hstem
          0 70 70 70 vstem
          210 350 rmoveto
          -210 -210 140 -140 70 hlineto
          -140 210 rmoveto
          70 70 -70 vlineto
          endchar
        </CharString>
        <CharString name="noonar">
          -157 -250 70 hstem
          70 80 vstem
          127 284 rmoveto
          -17 10 -47 -79 17 -10 rlineto
          -10 -65 rmoveto
          -40 -70 40 -40 rlineto
          -210 -100 vlineto
          -20 -17 5 15 -11 hvcurveto
          -52 -90 rlineto
          242 hlineto
          23 15 15 25 hvcurveto
          270 vlineto
          endchar
        </CharString>
        <CharString name="noonghunnaar">
          -157 -250 70 hstem
          70 80 vstem
          70 140 rmoveto
          -40 -70 40 -40 rlineto
          -210 -100 vlineto
          -20 -17 5 15 -11 hvcurveto
          -52 -90 rlineto
          242 hlineto
          23 15 15 25 hvcurveto
          270 vlineto
          endchar
        </CharString>
        <CharString name="noonghunnaar.fina">
          -157 -250 70 180 70 hstem
          70 80 vstem
          190 70 rmoveto
          -50 hlineto
          -70 70 -40 -70 40 -40 rlineto
          -210 -100 vlineto
          -20 -17 5 15 -11 hvcurveto
          -52 -90 rlineto
          242 hlineto
          23 15 15 25 hvcurveto
          210 40 vlineto
          endchar
        </CharString>
        <CharString name="onear">
          -237 21 -21 hstem
          0 70 vstem
          350 vmoveto
          -350 70 350 vlineto
          endchar
        </CharString>
        <CharString name="qafDotabovear">
          -51 -250 70 40 70 70 70 40 70 hstemhm
          0 80 40 80 -28 84 hintmask 11111100
          143 334 rmoveto
          -17 10 -47 -79 17 -10 rlineto
          hintmask 11111010
          46 -325 rmoveto
          -51 hlineto
          hintmask 11111100
          88 97 rlineto
          14 15 7 21 27 vvcurveto
          50 -45 40 -55 -55 -45 -40 -50 -60 45 -30 55 11 10 1 1 9 vhcurveto
          -130 -142 rlineto
          hintmask 11111010
          132 hlineto
          22 18 -18 -22 hvcurveto
          -196 hlineto
          -40 -70 rlineto
          299 hlineto
          6 15 0 21 139 -70 20 -44 hvcurveto
          hintmask 11111100
          -42 140 rmoveto
          -11 -9 9 11 11 9 9 11 11 9 -9 -11 -11 -9 -9 -11 hvcurveto
          endchar
        </CharString>
        <CharString name="qafDotlessar">
          -51 -250 70 40 70 70 70 40 70 hstemhm
          0 80 40 80 -28 84 hintmask 00000000
          hintmask 11111010
          142 -70 rmoveto
          -51 hlineto
          hintmask 11111100
          88 97 rlineto
          14 15 7 21 27 vvcurveto
          50 -45 40 -55 -55 -45 -40 -50 -60 45 -30 55 11 10 1 1 9 vhcurveto
          -130 -142 rlineto
          hintmask 11111010
          132 hlineto
          22 18 -18 -22 hvcurveto
          -196 hlineto
          -40 -70 rlineto
          299 hlineto
          6 15 0 21 139 -70 20 -44 hvcurveto
          hintmask 11111100
          -42 140 rmoveto
          -11 -9 9 11 11 9 9 11 11 9 -9 -11 -11 -9 -9 -11 hvcurveto
          endchar
        </CharString>
        <CharString name="qafDotlessar.fina">
          -91 -250 70 40 70 70 70 40 70 hstemhm
          0 80 40 80 -28 84 hintmask 11111100
          256 hmoveto
          70 -57 vlineto
          1 6 0 7 7 vvcurveto
          50 -45 40 -55 -55 -45 -40 -50 -60 45 -30 55 vhcurveto
          27 hlineto
          -127 -140 rlineto
          hintmask 11111010
          132 hlineto
          22 18 -18 -22 hvcurveto
          -196 hlineto
          -40 -70 rlineto
          299 hlineto
          6 15 0 21 139 -70 20 -44 hvcurveto
          -51 hlineto
          hintmask 11111100
          64 70 rlineto
          -75 90 rmoveto
          11 9 9 11 11 9 -9 -11 -11 -9 -9 -11 -11 -9 9 11 vhcurveto
          endchar
        </CharString>
        <CharString name="qafar">
          -51 -250 70 40 70 70 70 40 70 hstemhm
          0 80 40 80 -28 84 hintmask 11111100
          105 334 rmoveto
          -17 10 -47 -79 17 -10 rlineto
          46 hmoveto
          47 79 -17 10 -47 -79 rlineto
          hintmask 11111010
          55 -335 rmoveto
          -51 hlineto
          hintmask 11111100
          88 97 rlineto
          14 15 7 21 27 vvcurveto
          50 -45 40 -55 -55 -45 -40 -50 -60 45 -30 55 11 10 1 1 9 vhcurveto
          -130 -142 rlineto
          hintmask 11111010
          132 hlineto
          22 18 -18 -22 hvcurveto
          -196 hlineto
          -40 -70 rlineto
          299 hlineto
          6 15 0 21 139 -70 20 -44 hvcurveto
          hintmask 11111100
          -42 140 rmoveto
          -11 -9 9 11 11 9 9 11 11 9 -9 -11 -11 -9 -9 -11 hvcurveto
          endchar
        </CharString>
        <CharString name="rehar">
          -35 -110 70 40 140 -119 -21 hstemhm
          213 84 hintmask 10110000
          -63 -110 rmoveto
          339 hlineto
          6 15 0 21 hvcurveto
          hintmask 11010000
          139 -69 43 -147 47 vhcurveto
          -80 -140 rlineto
          172 hlineto
          22 18 -18 -22 hvcurveto
          -236 hlineto
          endchar
        </CharString>
        <CharString name="rehar.1">
          -35 -110 70 40 105 hstem
          213 84 vstem
          -63 -110 rmoveto
          339 hlineto
          6 15 0 21 139 -68 46 -168 9 hvcurveto
          -60 -105 rlineto
          172 hlineto
          22 18 -18 -22 hvcurveto
          -236 hlineto
          endchar
        </CharString>
        <CharString name="rehar.fina">
          -64 -110 70 40 70 hstem
          213 70 vstem
          283 1 rmoveto
          69 -50 vlineto
          -36 29 -50 20 -66 21 -80 -140 rcurveline
          172 hlineto
          22 18 -18 -22 hvcurveto
          -236 hlineto
          -40 -70 rlineto
          339 hlineto
          6 15 0 21 36 -5 29 -9 25 hvcurveto
          endchar
        </CharString>
        <CharString name="rehar.fina.1">
          -64 -110 70 40 70 hstem
          213 70 vstem
          283 1 rmoveto
          69 -61 vlineto
          -38 21 -53 10 -70 4 -60 -105 rcurveline
          172 hlineto
          22 18 -18 -22 hvcurveto
          -236 hlineto
          -40 -70 rlineto
          339 hlineto
          6 15 0 21 36 -4 29 -10 25 hvcurveto
          endchar
        </CharString>
        <CharString name="sadar">
          393 -250 70 180 70 40 70 hstem
          70 80 466 84 vstem
          586 180 rmoveto
          -436 hlineto
          -80 80 -40 -70 40 -40 rlineto
          -330 -100 vlineto
          -20 -17 5 15 -11 hvcurveto
          -52 -90 rlineto
          242 hlineto
          23 15 15 25 hvcurveto
          210 529 vlineto
          6 15 0 21 139 -70 20 -44 hvcurveto
          30 -110 rmoveto
          -466 40 426 hlineto
          22 18 -18 -22 hvcurveto
          endchar
        </CharString>
        <CharString name="sadar.1">
          393 -250 70 180 70 40 70 50 -20 hstem
          70 80 466 84 vstem
          586 180 rmoveto
          -436 70 hlineto
          -80 -20 rlineto
          -410 -100 vlineto
          -20 -17 5 15 -11 hvcurveto
          -52 -90 rlineto
          242 hlineto
          23 15 15 25 hvcurveto
          210 529 vlineto
          6 15 0 21 139 -70 20 -44 hvcurveto
          30 -110 rmoveto
          -466 40 426 hlineto
          22 18 -18 -22 hvcurveto
          endchar
        </CharString>
        <CharString name="sadar.fina">
          393 -250 70 180 70 40 70 hstem
          70 80 466 124 vstem
          697 70 rmoveto
          95 -15 -58 15 -38 hhcurveto
          -436 hlineto
          -80 80 -40 -70 40 -40 rlineto
          -330 -100 vlineto
          -20 -17 5 15 -11 hvcurveto
          -52 -90 rlineto
          242 hlineto
          23 15 15 25 hvcurveto
          210 590 70 vlineto
          -124 hmoveto
          -466 40 426 hlineto
          22 18 -18 -22 hvcurveto
          endchar
        </CharString>
        <CharString name="sadar.fina.1">
          393 -250 70 180 70 40 70 50 -20 hstem
          70 80 466 124 vstem
          697 70 rmoveto
          95 -15 -58 15 -38 hhcurveto
          -436 70 hlineto
          -80 -20 rlineto
          -410 -100 vlineto
          -20 -17 5 15 -11 hvcurveto
          -52 -90 rlineto
          242 hlineto
          23 15 15 25 hvcurveto
          210 590 70 vlineto
          -124 hmoveto
          -466 40 426 hlineto
          22 18 -18 -22 hvcurveto
          endchar
        </CharString>
        <CharString name="sadar.init">
          323 0 70 40 70 50 -20 hstem
          0 80 466 84 vstem
          516 180 rmoveto
          -436 70 hlineto
          -80 -20 rlineto
          -160 -20 -70 629 vlineto
          6 15 0 21 139 -70 20 -44 hvcurveto
          30 -110 rmoveto
          -466 40 426 hlineto
          22 18 -18 -22 hvcurveto
          endchar
        </CharString>
        <CharString name="sadar.medi">
          323 0 70 40 70 50 -20 hstem
          0 80 466 124 vstem
          627 70 rmoveto
          95 -15 -58 15 -38 hhcurveto
          -436 70 hlineto
          -80 -20 rlineto
          -160 -20 -70 690 70 vlineto
          -124 hmoveto
          -466 40 426 hlineto
          22 18 -18 -22 hvcurveto
          endchar
        </CharString>
        <CharString name="seenar">
          83 -250 70 180 70 160 -20 hstem
          70 80 40 80 40 80 vstem
          310 210 rmoveto
          -140 vlineto
          -22 -18 18 22 hvcurveto
          120 vlineto
          -80 -20 rlineto
          -140 vlineto
          -22 -18 18 22 hvcurveto
          120 vlineto
          -80 -20 rlineto
          -390 -100 vlineto
          -20 -17 5 15 -11 hvcurveto
          -52 -90 rlineto
          242 hlineto
          23 15 15 25 hvcurveto
          210 99 vlineto
          120 hlineto
          6 15 0 11 hvcurveto
          219 vlineto
          endchar
        </CharString>
        <CharString name="seenar.1">
          83 -250 70 180 70 160 -20 hstem
          70 80 40 80 40 80 vstem
          310 230 rmoveto
          -160 vlineto
          -22 -18 18 22 hvcurveto
          140 vlineto
          -80 -20 rlineto
          -160 vlineto
          -22 -18 18 22 hvcurveto
          140 vlineto
          -80 -20 rlineto
          -410 -100 vlineto
          -20 -17 5 15 -11 hvcurveto
          -52 -90 rlineto
          242 hlineto
          23 15 15 25 hvcurveto
          210 99 vlineto
          120 hlineto
          6 15 0 11 hvcurveto
          239 vlineto
          endchar
        </CharString>
        <CharString name="seenar.2">
          83 -250 70 180 70 hstem
          70 80 40 80 40 80 vstem
          310 250 rmoveto
          -180 vlineto
          -22 -18 18 22 hvcurveto
          160 vlineto
          -80 -20 rlineto
          -180 vlineto
          -22 -18 18 22 hvcurveto
          160 vlineto
          -80 -20 rlineto
          -430 -100 vlineto
          -20 -17 5 15 -11 hvcurveto
          -52 -90 rlineto
          242 hlineto
          23 15 15 25 hvcurveto
          210 99 vlineto
          120 hlineto
          6 15 0 11 hvcurveto
          259 vlineto
          endchar
        </CharString>
        <CharString name="seenar.3">
          83 -250 70 180 70 170 -20 hstem
          70 80 40 80 40 80 vstem
          310 250 rmoveto
          -180 vlineto
          -22 -18 18 22 hvcurveto
          130 vlineto
          -80 -20 rlineto
          -150 vlineto
          -22 -18 18 22 hvcurveto
          100 vlineto
          -80 -20 rlineto
          -370 -100 vlineto
          -20 -17 5 15 -11 hvcurveto
          -52 -90 rlineto
          242 hlineto
          23 15 15 25 hvcurveto
          210 99 vlineto
          120 hlineto
          6 15 0 11 hvcurveto
          259 vlineto
          endchar
        </CharString>
        <CharString name="seenar.4">
          83 -250 70 180 70 160 -20 30 -20 hstemhm
          70 80 40 80 40 80 hintmask 11011110
          310 270 rmoveto
          -200 vlineto
          -22 -18 18 22 hvcurveto
          150 vlineto
          -80 -20 rlineto
          -170 vlineto
          -22 -18 18 22 hvcurveto
          hintmask 11101110
          120 vlineto
          -80 -20 rlineto
          -390 -100 vlineto
          -20 -17 5 15 -11 hvcurveto
          -52 -90 rlineto
          242 hlineto
          23 15 15 25 hvcurveto
          210 99 vlineto
          120 hlineto
          6 15 0 11 hvcurveto
          279 vlineto
          endchar
        </CharString>
        <CharString name="seenar.5">
          83 -250 70 180 70 160 -20 hstem
          70 80 40 80 40 80 vstem
          310 290 rmoveto
          -220 vlineto
          -22 -18 18 22 hvcurveto
          170 vlineto
          -80 -20 rlineto
          -190 vlineto
          -22 -18 18 22 hvcurveto
          140 vlineto
          -80 -20 rlineto
          -410 -100 vlineto
          -20 -17 5 15 -11 hvcurveto
          -52 -90 rlineto
          242 hlineto
          23 15 15 25 hvcurveto
          210 99 vlineto
          120 hlineto
          6 15 0 11 hvcurveto
          299 vlineto
          endchar
        </CharString>
        <CharString name="seenar.6">
          23 -250 70 180 70 hstem
          70 80 100 80 vstem
          250 157 rmoveto
          -87 vlineto
          -70 70 -40 -70 -70 70 -40 -70 40 -40 rlineto
          -210 -100 vlineto
          -20 -17 5 15 -11 hvcurveto
          -52 -90 rlineto
          242 hlineto
          23 15 15 25 hvcurveto
          210 159 vlineto
          6 15 0 11 hvcurveto
          166 vlineto
          endchar
        </CharString>
        <CharString name="seenar.fina">
          83 -250 70 180 70 160 -20 hstem
          70 80 40 80 40 80 vstem
          390 110 rmoveto
          120 vlineto
          -80 -20 rlineto
          -140 vlineto
          -22 -18 18 22 hvcurveto
          120 vlineto
          -80 -20 rlineto
          -140 vlineto
          -22 -18 18 22 hvcurveto
          120 vlineto
          -80 -20 rlineto
          -390 -100 vlineto
          -20 -17 5 15 -11 hvcurveto
          -52 -90 rlineto
          242 hlineto
          23 15 15 25 hvcurveto
          210 99 vlineto
          120 hlineto
          61 70 hlineto
          -22 -18 18 22 hvcurveto
          endchar
        </CharString>
        <CharString name="seenar.fina.1">
          83 -250 70 180 70 160 -20 hstem
          70 80 40 80 40 80 vstem
          390 110 rmoveto
          140 vlineto
          -80 -20 rlineto
          -160 vlineto
          -22 -18 18 22 hvcurveto
          140 vlineto
          -80 -20 rlineto
          -160 vlineto
          -22 -18 18 22 hvcurveto
          140 vlineto
          -80 -20 rlineto
          -410 -100 vlineto
          -20 -17 5 15 -11 hvcurveto
          -52 -90 rlineto
          242 hlineto
          23 15 15 25 hvcurveto
          210 99 vlineto
          120 hlineto
          61 70 hlineto
          -22 -18 18 22 hvcurveto
          endchar
        </CharString>
        <CharString name="seenar.fina.2">
          83 -250 70 180 70 hstem
          70 80 40 80 40 80 vstem
          390 110 rmoveto
          160 vlineto
          -80 -20 rlineto
          -180 vlineto
          -22 -18 18 22 hvcurveto
          160 vlineto
          -80 -20 rlineto
          -180 vlineto
          -22 -18 18 22 hvcurveto
          160 vlineto
          -80 -20 rlineto
          -430 -100 vlineto
          -20 -17 5 15 -11 hvcurveto
          -52 -90 rlineto
          242 hlineto
          23 15 15 25 hvcurveto
          210 99 vlineto
          120 hlineto
          61 70 hlineto
          -22 -18 18 22 hvcurveto
          endchar
        </CharString>
        <CharString name="seenar.fina.3">
          83 -250 70 180 70 170 -20 hstem
          70 80 40 80 40 80 vstem
          390 110 rmoveto
          160 vlineto
          -80 -20 rlineto
          -180 vlineto
          -22 -18 18 22 hvcurveto
          130 vlineto
          -80 -20 rlineto
          -150 vlineto
          -22 -18 18 22 hvcurveto
          100 vlineto
          -80 -20 rlineto
          -370 -100 vlineto
          -20 -17 5 15 -11 hvcurveto
          -52 -90 rlineto
          242 hlineto
          23 15 15 25 hvcurveto
          210 99 vlineto
          120 hlineto
          61 70 hlineto
          -22 -18 18 22 hvcurveto
          endchar
        </CharString>
        <CharString name="seenar.fina.4">
          83 -250 70 180 70 160 -20 30 -20 hstemhm
          70 80 40 80 40 80 hintmask 11011110
          390 110 rmoveto
          180 vlineto
          -80 -20 rlineto
          -200 vlineto
          -22 -18 18 22 hvcurveto
          150 vlineto
          -80 -20 rlineto
          -170 vlineto
          -22 -18 18 22 hvcurveto
          hintmask 11101110
          120 vlineto
          -80 -20 rlineto
          -390 -100 vlineto
          -20 -17 5 15 -11 hvcurveto
          -52 -90 rlineto
          242 hlineto
          23 15 15 25 hvcurveto
          210 99 vlineto
          120 hlineto
          61 70 hlineto
          hintmask 11011110
          -22 -18 18 22 hvcurveto
          endchar
        </CharString>
        <CharString name="seenar.fina.5">
          83 -250 70 180 70 160 -20 hstem
          70 80 40 80 40 80 vstem
          390 110 rmoveto
          200 vlineto
          -80 -20 rlineto
          -220 vlineto
          -22 -18 18 22 hvcurveto
          170 vlineto
          -80 -20 rlineto
          -190 vlineto
          -22 -18 18 22 hvcurveto
          140 vlineto
          -80 -20 rlineto
          -410 -100 vlineto
          -20 -17 5 15 -11 hvcurveto
          -52 -90 rlineto
          242 hlineto
          23 15 15 25 hvcurveto
          210 99 vlineto
          120 hlineto
          61 70 hlineto
          -22 -18 18 22 hvcurveto
          endchar
        </CharString>
        <CharString name="seenar.init">
          13 0 70 160 -20 hstem
          0 80 40 80 40 80 vstem
          240 210 rmoveto
          -140 vlineto
          -22 -18 18 22 hvcurveto
          120 vlineto
          -80 -20 rlineto
          -140 vlineto
          -22 -18 18 22 hvcurveto
          120 vlineto
          -80 -20 rlineto
          -140 -20 -70 79 vlineto
          120 hlineto
          120 hlineto
          6 15 0 11 hvcurveto
          219 vlineto
          endchar
        </CharString>
        <CharString name="seenar.init.1">
          13 0 70 160 -20 hstem
          0 80 40 80 40 80 vstem
          240 230 rmoveto
          -160 vlineto
          -22 -18 18 22 hvcurveto
          140 vlineto
          -80 -20 rlineto
          -160 vlineto
          -22 -18 18 22 hvcurveto
          140 vlineto
          -80 -20 rlineto
          -160 -20 -70 79 vlineto
          120 hlineto
          120 hlineto
          6 15 0 11 hvcurveto
          239 vlineto
          endchar
        </CharString>
        <CharString name="seenar.init.2">
          13 0 70 hstem
          0 80 40 80 40 80 vstem
          240 250 rmoveto
          -180 vlineto
          -22 -18 18 22 hvcurveto
          160 vlineto
          -80 -20 rlineto
          -180 vlineto
          -22 -18 18 22 hvcurveto
          160 vlineto
          -80 -20 rlineto
          -180 -20 -70 79 vlineto
          120 hlineto
          120 hlineto
          6 15 0 11 hvcurveto
          259 vlineto
          endchar
        </CharString>
        <CharString name="seenar.init.3">
          13 0 70 170 -20 hstem
          0 80 40 80 40 80 vstem
          240 250 rmoveto
          -180 vlineto
          -22 -18 18 22 hvcurveto
          130 vlineto
          -80 -20 rlineto
          -150 vlineto
          -22 -18 18 22 hvcurveto
          100 vlineto
          -80 -20 rlineto
          -120 -20 -70 79 vlineto
          120 hlineto
          120 hlineto
          6 15 0 11 hvcurveto
          259 vlineto
          endchar
        </CharString>
        <CharString name="seenar.init.4">
          13 0 70 160 -20 30 -20 hstemhm
          0 80 40 80 40 80 hintmask 10111100
          240 270 rmoveto
          -200 vlineto
          -22 -18 18 22 hvcurveto
          150 vlineto
          -80 -20 rlineto
          -170 vlineto
          -22 -18 18 22 hvcurveto
          hintmask 11011100
          120 vlineto
          -80 -20 rlineto
          -140 -20 -70 79 vlineto
          120 hlineto
          120 hlineto
          6 15 0 11 hvcurveto
          279 vlineto
          endchar
        </CharString>
        <CharString name="seenar.init.5">
          13 0 70 160 -20 hstem
          0 80 40 80 40 80 vstem
          240 290 rmoveto
          -220 vlineto
          -22 -18 18 22 hvcurveto
          170 vlineto
          -80 -20 rlineto
          -190 vlineto
          -22 -18 18 22 hvcurveto
          140 vlineto
          -80 -20 rlineto
          -160 -20 -70 79 vlineto
          120 hlineto
          120 hlineto
          6 15 0 11 hvcurveto
          299 vlineto
          endchar
        </CharString>
        <CharString name="seenar.init.6">
          -7 0 70 hstem
          220 80 vstem
          220 157 rmoveto
          -87 vlineto
          -70 70 -40 -70 -70 70 -40 -70 rlineto
          -20 -70 299 hlineto
          6 15 0 11 hvcurveto
          166 vlineto
          endchar
        </CharString>
        <CharString name="seenar.medi">
          13 0 70 160 -20 hstem
          0 80 40 80 40 80 vstem
          320 110 rmoveto
          120 vlineto
          -80 -20 rlineto
          -140 vlineto
          -22 -18 18 22 hvcurveto
          120 vlineto
          -80 -20 rlineto
          -140 vlineto
          -22 -18 18 22 hvcurveto
          120 vlineto
          -80 -20 rlineto
          -140 -20 -70 79 vlineto
          120 hlineto
          120 hlineto
          61 70 hlineto
          -22 -18 18 22 hvcurveto
          endchar
        </CharString>
        <CharString name="seenar.medi.1">
          13 0 70 160 -20 hstem
          0 80 40 80 40 80 vstem
          320 110 rmoveto
          140 vlineto
          -80 -20 rlineto
          -160 vlineto
          -22 -18 18 22 hvcurveto
          140 vlineto
          -80 -20 rlineto
          -160 vlineto
          -22 -18 18 22 hvcurveto
          140 vlineto
          -80 -20 rlineto
          -160 -20 -70 79 vlineto
          120 hlineto
          120 hlineto
          61 70 hlineto
          -22 -18 18 22 hvcurveto
          endchar
        </CharString>
        <CharString name="seenar.medi.2">
          13 0 70 hstem
          0 80 40 80 40 80 vstem
          320 110 rmoveto
          160 vlineto
          -80 -20 rlineto
          -180 vlineto
          -22 -18 18 22 hvcurveto
          160 vlineto
          -80 -20 rlineto
          -180 vlineto
          -22 -18 18 22 hvcurveto
          160 vlineto
          -80 -20 rlineto
          -180 -20 -70 79 vlineto
          120 hlineto
          120 hlineto
          61 70 hlineto
          -22 -18 18 22 hvcurveto
          endchar
        </CharString>
        <CharString name="seenar.medi.3">
          13 0 70 170 -20 hstem
          0 80 40 80 40 80 vstem
          320 110 rmoveto
          160 vlineto
          -80 -20 rlineto
          -180 vlineto
          -22 -18 18 22 hvcurveto
          130 vlineto
          -80 -20 rlineto
          -150 vlineto
          -22 -18 18 22 hvcurveto
          100 vlineto
          -80 -20 rlineto
          -120 -20 -70 79 vlineto
          120 hlineto
          120 hlineto
          61 70 hlineto
          -22 -18 18 22 hvcurveto
          endchar
        </CharString>
        <CharString name="seenar.medi.4">
          13 0 70 160 -20 30 -20 hstemhm
          0 80 40 80 40 80 hintmask 10111100
          320 110 rmoveto
          180 vlineto
          -80 -20 rlineto
          -200 vlineto
          -22 -18 18 22 hvcurveto
          150 vlineto
          -80 -20 rlineto
          -170 vlineto
          -22 -18 18 22 hvcurveto
          hintmask 11011100
          120 vlineto
          -80 -20 rlineto
          -140 -20 -70 79 vlineto
          120 hlineto
          120 hlineto
          61 70 hlineto
          hintmask 10111100
          -22 -18 18 22 hvcurveto
          endchar
        </CharString>
        <CharString name="seenar.medi.5">
          13 0 70 160 -20 hstem
          0 80 40 80 40 80 vstem
          320 110 rmoveto
          200 vlineto
          -80 -20 rlineto
          -220 vlineto
          -22 -18 18 22 hvcurveto
          170 vlineto
          -80 -20 rlineto
          -190 vlineto
          -22 -18 18 22 hvcurveto
          140 vlineto
          -80 -20 rlineto
          -160 -20 -70 79 vlineto
          120 hlineto
          120 hlineto
          61 70 hlineto
          -22 -18 18 22 hvcurveto
          endchar
        </CharString>
        <CharString name="seenar.medi.6">
          23 0 70 hstem
          -20 390 vstem
          330 70 rmoveto
          -70 70 -40 -70 -70 70 -40 -70 -70 70 -40 -70 rlineto
          -20 -70 390 70 hlineto
          endchar
        </CharString>
        <CharString name="sevenar">
          -97 0 70 hstem
          0 70 70 70 vstem
          140 350 rmoveto
          -280 -70 280 -70 -350 210 350 vlineto
          endchar
        </CharString>
        <CharString name="sevenar.1">
          -1 21 -21 hstem
          0 306 vstem
          240 350 rmoveto
          -87 -238 -87 238 -66 -23 120 -327 rlineto
          66 hlineto
          120 327 rlineto
          endchar
        </CharString>
        <CharString name="sheenar">
          83 -250 70 180 70 160 -20 hstem
          70 80 40 80 40 80 vstem
          219 379 rmoveto
          -17 10 -47 -79 17 -10 rlineto
          46 hmoveto
          47 79 -17 10 -47 -79 rlineto
          63 -10 rmoveto
          47 79 -17 10 -47 -79 rlineto
          63 -100 rmoveto
          -140 vlineto
          -22 -18 18 22 hvcurveto
          120 vlineto
          -80 -20 rlineto
          -140 vlineto
          -22 -18 18 22 hvcurveto
          120 vlineto
          -80 -20 rlineto
          -390 -100 vlineto
          -20 -17 5 15 -11 hvcurveto
          -52 -90 rlineto
          242 hlineto
          23 15 15 25 hvcurveto
          210 99 vlineto
          120 hlineto
          6 15 0 11 hvcurveto
          219 vlineto
          endchar
        </CharString>
        <CharString name="sixar">
          -97 21 -21 189 70 hstem
          0 70 70 70 vstem
          140 350 rmoveto
          -91 -70 91 -70 -161 140 -189 70 350 vlineto
          endchar
        </CharString>
        <CharString name="sixar.1">
          -97 21 -21 280 70 hstem
          140 70 vstem
          210 350 rmoveto
          -210 -70 140 -280 70 hlineto
          endchar
        </CharString>
        <CharString name="space">
          endchar
        </CharString>
        <CharString name="space.alt">
          -307 endchar
        </CharString>
        <CharString name="tahar">
          403 0 70 40 70 380 -20 hstem
          80 80 466 84 vstem
          596 180 rmoveto
          -436 380 hlineto
          -80 -20 rlineto
          -470 -40 vlineto
          -40 -70 rlineto
          689 hlineto
          6 15 0 21 139 -70 20 -44 hvcurveto
          30 -110 rmoveto
          -466 40 426 hlineto
          22 18 -18 -22 hvcurveto
          endchar
        </CharString>
        <CharString name="tahar.fina">
          403 0 70 40 70 380 -20 hstem
          80 80 466 124 vstem
          707 70 rmoveto
          95 -15 -58 15 -38 hhcurveto
          -436 380 hlineto
          -80 -20 rlineto
          -470 -40 vlineto
          -40 -70 rlineto
          750 70 hlineto
          -124 hmoveto
          -466 40 426 hlineto
          22 18 -18 -22 hvcurveto
          endchar
        </CharString>
        <CharString name="tahar.init">
          323 0 70 40 70 380 -20 hstem
          0 80 466 84 vstem
          516 180 rmoveto
          -436 380 hlineto
          -80 -20 rlineto
          -470 -20 -70 629 vlineto
          6 15 0 21 139 -70 20 -44 hvcurveto
          30 -110 rmoveto
          -466 40 426 hlineto
          22 18 -18 -22 hvcurveto
          endchar
        </CharString>
        <CharString name="tahar.medi">
          323 0 70 40 70 380 -20 hstem
          0 80 466 124 vstem
          627 70 rmoveto
          95 -15 -58 15 -38 hhcurveto
          -436 380 hlineto
          -80 -20 rlineto
          -470 -20 -70 690 70 vlineto
          -124 hmoveto
          -466 40 426 hlineto
          22 18 -18 -22 hvcurveto
          endchar
        </CharString>
        <CharString name="tehMarbutaar">
          -107 0 70 40 70 65 -20 hstem
          0 80 40 80 vstem
          109 314 rmoveto
          -17 10 -47 -79 17 -10 rlineto
          46 hmoveto
          47 79 -17 10 -47 -79 rlineto
          9 -65 rmoveto
          -55 -45 -40 -50 -60 45 -30 55 65 35 30 60 hvcurveto
          130 vlineto
          -35 -20 -40 -5 -40 hhcurveto
          -110 vmoveto
          -11 -9 9 11 11 9 9 11 11 9 -9 -11 -11 -9 -9 -11 hvcurveto
          endchar
        </CharString>
        <CharString name="tehar">
          253 0 70 160 -20 hstem
          480 80 vstem
          289 279 rmoveto
          -17 10 -47 -79 17 -10 rlineto
          46 hmoveto
          47 79 -17 10 -47 -79 rlineto
          209 hmoveto
          -140 -380 vlineto
          -22 -16 7 13 -10 hvcurveto
          -52 -90 rlineto
          539 hlineto
          6 15 0 11 hvcurveto
          219 vlineto
          endchar
        </CharString>
        <CharString name="thalar">
          253 0 70 40 70 hstem
          476 84 vstem
          327 334 rmoveto
          -17 10 -47 -79 17 -10 rlineto
          166 -75 rmoveto
          -326 hlineto
          27 70 rlineto
          -3 hlineto
          -80 -140 rlineto
          372 hlineto
          22 18 -18 -22 hvcurveto
          -436 hlineto
          -40 -70 rlineto
          539 hlineto
          6 15 0 21 139 -70 20 -44 hvcurveto
          endchar
        </CharString>
        <CharString name="thehar">
          253 0 70 160 -20 hstem
          480 80 vstem
          266 279 rmoveto
          -17 10 -47 -79 17 -10 rlineto
          46 hmoveto
          47 79 -17 10 -47 -79 rlineto
          63 -10 rmoveto
          47 79 -17 10 -47 -79 rlineto
          186 hmoveto
          -140 -380 vlineto
          -22 -16 7 13 -10 hvcurveto
          -52 -90 rlineto
          539 hlineto
          6 15 0 11 hvcurveto
          219 vlineto
          endchar
        </CharString>
        <CharString name="threear">
          3 0 70 70 70 -70 210 hstemhm
          0 70 50 70 50 70 hintmask 00000000
          hintmask 10111100
          240 350 rmoveto
          hintmask 11011100
          -140 -50 vlineto
          hintmask 10111100
          140 -70 vlineto
          hintmask 11011100
          -140 -50 vlineto
          hintmask 10111100
          140 -70 -350 310 70 -240 vlineto
          hintmask 11011100
          70 240 vlineto
          hintmask 10111100
          210 vlineto
          endchar
        </CharString>
        <CharString name="threear.1">
          3 21 -21 140 70 -70 210 hstemhm
          0 70 50 70 50 70 hintmask 00000000
          hintmask 10111100
          240 350 rmoveto
          hintmask 11011100
          -140 -50 vlineto
          hintmask 10111100
          140 -70 vlineto
          hintmask 11011100
          -140 -50 vlineto
          hintmask 10111100
          140 -70 -350 70 vlineto
          hintmask 11011100
          140 240 vlineto
          hintmask 10111100
          210 vlineto
          endchar
        </CharString>
        <CharString name="threedotsupabovear">
          0 89 hstem
          0 156 vstem
          17 hmoveto
          -17 10 47 79 17 -10 rlineto
          -1 -79 rmoveto
          -17 10 47 79 17 -10 rlineto
          -1 -79 rmoveto
          -17 10 47 79 17 -10 rlineto
          endchar
        </CharString>
        <CharString name="threedotsupabovear.alt1">
          0 58 12 58 hstemhm
          0 58 -19 58 -15 58 hintmask 00000000
          hintmask 11010000
          68 70 rmoveto
          16 13 13 16 16 -13 13 -16 -16 -13 -13 -16 -16 13 -13 16 hvcurveto
          hintmask 10100000
          -39 -70 rmoveto
          16 13 13 16 16 -13 13 -16 -16 -13 -13 -16 -16 13 -13 16 hvcurveto
          hintmask 10101000
          82 hmoveto
          16 13 13 16 16 -13 13 -16 -16 -13 -13 -16 -16 13 -13 16 hvcurveto
          endchar
        </CharString>
        <CharString name="twoar">
          -97 21 -21 189 70 hstem
          0 70 70 70 vstem
          140 350 rmoveto
          -91 -70 91 -70 -350 70 189 140 161 vlineto
          endchar
        </CharString>
        <CharString name="twoar.1">
          -97 21 -21 280 70 hstem
          0 70 vstem
          210 350 rmoveto
          -210 -350 70 280 140 hlineto
          endchar
        </CharString>
        <CharString name="twodotshorizontalabovear">
          0 89 hstem
          0 110 vstem
          17 hmoveto
          -17 10 47 79 17 -10 rlineto
          -1 -79 rmoveto
          -17 10 47 79 17 -10 rlineto
          endchar
        </CharString>
        <CharString name="twodotshorizontalabovear.alt1">
          0 58 hstemhm
          0 58 24 58 hintmask 11000000
          29 hmoveto
          16 13 13 16 16 -13 13 -16 -16 -13 -13 -16 -16 13 -13 16 hvcurveto
          hintmask 11100000
          82 hmoveto
          16 13 13 16 16 -13 13 -16 -16 -13 -13 -16 -16 13 -13 16 hvcurveto
          endchar
        </CharString>
        <CharString name="twodotshorizontalbelowar">
          0 89 hstem
          0 110 vstem
          17 hmoveto
          -17 10 47 79 17 -10 rlineto
          -1 -79 rmoveto
          -17 10 47 79 17 -10 rlineto
          endchar
        </CharString>
        <CharString name="twodotshorizontalbelowar.alt1">
          0 58 hstemhm
          0 58 24 58 hintmask 11000000
          29 hmoveto
          16 13 13 16 16 -13 13 -16 -16 -13 -13 -16 -16 13 -13 16 hvcurveto
          hintmask 11100000
          82 hmoveto
          16 13 13 16 16 -13 13 -16 -16 -13 -13 -16 -16 13 -13 16 hvcurveto
          endchar
        </CharString>
        <CharString name="twodotsverticalabovear">
          0 146 hstem
          0 76 vstem
          17 57 rmoveto
          -17 10 47 79 17 -10 rlineto
          -35 -136 rmoveto
          -17 10 47 79 17 -10 rlineto
          endchar
        </CharString>
        <CharString name="twodotsverticalabovear.alt1">
          0 58 22 58 hstemhm
          0 58 hintmask 00000000
          hintmask 11100000
          29 80 rmoveto
          16 13 13 16 16 -13 13 -16 -16 -13 -13 -16 -16 13 -13 16 hvcurveto
          hintmask 10100000
          -80 vmoveto
          16 13 13 16 16 -13 13 -16 -16 -13 -13 -16 -16 13 -13 16 hvcurveto
          endchar
        </CharString>
        <CharString name="wawHamzaabovear">
          -77 -110 70 40 70 40 70 50 29 33 25 hstem
          30 80 52 81 vstem
          70 230 rmoveto
          108 hlineto
          17 29 rlineto
          -53 hlineto
          -8 -5 7 8 9 7 9 15 5 7 -1 -3 7 hvcurveto
          18 -6 -14 11 -14 hhcurveto
          -32 -14 -32 -26 8 hvcurveto
          -11 hlineto
          146 -168 rmoveto
          56 -15 -38 33 -50 hhcurveto
          -55 -45 -40 -50 -50 45 -40 55 10 10 1 3 10 hvcurveto
          2 -7 0 -8 -7 vvcurveto
          -7 0 -8 -2 -7 vhcurveto
          -110 hlineto
          -22 -16 7 13 -10 hvcurveto
          -52 -90 rlineto
          243 hlineto
          31 9 14 24 5 hvcurveto
          4 17 1 22 26 vvcurveto
          36 -4 37 -6 25 vhcurveto
          -103 -21 rmoveto
          -11 -9 9 11 11 9 9 11 11 9 -9 -11 -11 -9 -9 -11 hvcurveto
          endchar
        </CharString>
        <CharString name="wawar">
          -77 -110 70 40 70 40 70 hstem
          30 80 52 81 vstem
          233 91 rmoveto
          56 -15 -38 33 -50 hhcurveto
          -55 -45 -40 -50 -50 45 -40 55 10 10 1 3 10 hvcurveto
          2 -7 0 -8 -7 vvcurveto
          -7 0 -8 -2 -7 vhcurveto
          -110 hlineto
          -22 -16 7 13 -10 hvcurveto
          -52 -90 rlineto
          243 hlineto
          31 9 14 24 5 hvcurveto
          4 17 1 22 26 vvcurveto
          36 -4 37 -6 25 vhcurveto
          -103 -21 rmoveto
          -11 -9 9 11 11 9 9 11 11 9 -9 -11 -11 -9 -9 -11 hvcurveto
          endchar
        </CharString>
        <CharString name="wawar.1">
          -77 -110 70 40 70 40 70 hstem
          30 80 40 80 vstem
          130 180 rmoveto
          -55 -45 -40 -50 -50 45 -40 55 7 7 1 1 6 hvcurveto
          -42 -100 vlineto
          -22 -16 7 13 -10 hvcurveto
          -52 -90 rlineto
          242 hlineto
          23 15 15 25 hvcurveto
          160 vlineto
          50 -45 40 -55 vhcurveto
          -110 vmoveto
          -11 -9 9 11 11 9 9 11 11 9 -9 -11 -11 -9 -9 -11 hvcurveto
          endchar
        </CharString>
        <CharString name="wawar.2">
          -27 0 70 40 70 40 70 hstem
          80 80 52 81 vstem
          283 201 rmoveto
          56 -15 -38 33 -50 hhcurveto
          -55 -45 -40 -50 -50 45 -40 55 10 10 1 3 10 hvcurveto
          2 -7 0 -8 -7 vvcurveto
          -7 0 -8 -2 -7 vhcurveto
          -110 hlineto
          -22 -16 7 13 -10 hvcurveto
          -52 -90 rlineto
          243 hlineto
          31 9 14 24 5 hvcurveto
          4 17 1 22 26 vvcurveto
          36 -4 37 -6 25 vhcurveto
          -103 -21 rmoveto
          -11 -9 9 11 11 9 9 11 11 9 -9 -11 -11 -9 -9 -11 hvcurveto
          endchar
        </CharString>
        <CharString name="wawar.3">
          -40 0 70 40 70 40 70 hstem
          80 80 40 80 vstem
          180 290 rmoveto
          -55 -45 -40 -50 -50 45 -40 55 7 7 1 1 6 hvcurveto
          -42 -100 vlineto
          -22 -16 7 13 -10 hvcurveto
          -52 -90 rlineto
          242 hlineto
          23 15 15 25 hvcurveto
          160 vlineto
          50 -45 40 -55 vhcurveto
          -110 vmoveto
          -11 -9 9 11 11 9 9 11 11 9 -9 -11 -11 -9 -9 -11 hvcurveto
          endchar
        </CharString>
        <CharString name="wawar.fina">
          -67 -110 70 40 70 40 70 hstemhm
          30 80 40 130 -118 81 -81 118 hintmask 00000000
          hintmask 11110010
          280 70 rmoveto
          -43 hlineto
          -1 8 -1 7 -2 6 rrcurveto
          56 -15 -38 33 -50 hhcurveto
          -55 -45 -40 -50 -50 45 -40 55 hvcurveto
          hintmask 11110100
          31 hlineto
          1 -6 0 -6 -6 vvcurveto
          -7 0 -8 -2 -7 vhcurveto
          -110 hlineto
          -22 -16 7 13 -10 hvcurveto
          -52 -90 rlineto
          243 hlineto
          31 9 14 24 5 hvcurveto
          4 17 1 22 26 vvcurveto
          7 vlineto
          hintmask 11110010
          37 hlineto
          -170 90 rmoveto
          11 9 9 11 vhcurveto
          hintmask 11111000
          11 9 -9 -11 -11 -9 -9 -11 hvcurveto
          hintmask 11110010
          -11 -9 9 11 hvcurveto
          endchar
        </CharString>
        <CharString name="wawar.fina.1">
          -77 -110 70 40 70 40 70 hstem
          30 80 40 80 vstem
          270 70 rmoveto
          -40 20 hlineto
          50 -45 40 -55 -55 -45 -40 -50 -50 45 -40 55 vhcurveto
          20 -40 -100 hlineto
          -22 -16 7 13 -10 hvcurveto
          -52 -90 rlineto
          242 hlineto
          23 15 15 25 hvcurveto
          70 40 vlineto
          -160 90 rmoveto
          11 9 9 11 11 9 -9 -11 -11 -9 -9 -11 -11 -9 9 11 vhcurveto
          endchar
        </CharString>
        <CharString name="yehHamzaabovear">
          -100 -220 70 40 67 64 -21 70 83 45 29 33 25 hstem
          0 42 85 80 vstem
          -2 198 rmoveto
          108 hlineto
          17 29 rlineto
          -53 hlineto
          -8 -5 7 8 9 7 9 15 5 7 -1 -3 7 hvcurveto
          18 -6 -14 11 -14 hhcurveto
          -32 -14 -32 -26 8 hvcurveto
          -11 hlineto
          144 -270 rmoveto
          -32 -22 6 23 -23 hvcurveto
          -31 31 -17 17 9 47 14 -14 rlinecurve
          52 -52 rlineto
          -10 10 9 -5 12 hhcurveto
          16 36 10 80 10 hvcurveto
          -15 -3 -14 -5 -9 hhcurveto
          -9 -5 5 4 -4 hvcurveto
          -64 64 rlineto
          -50 50 -44 -149 -49 vvcurveto
          -83 55 -20 72 -2 vhcurveto
          -40 -60 vlineto
          -20 -17 5 15 -11 hvcurveto
          -52 -90 rlineto
          202 hlineto
          23 15 15 25 hvcurveto
          96 vlineto
          25 -13 16 -35 vhcurveto
          endchar
        </CharString>
        <CharString name="yehar">
          -100 -220 70 40 67 64 -21 70 83 hstem
          0 42 85 80 vstem
          159 -43 rmoveto
          -32 -22 6 23 -23 hvcurveto
          -31 31 -17 17 9 47 14 -14 rlinecurve
          52 -52 rlineto
          -10 10 9 -5 12 hhcurveto
          16 36 10 80 10 hvcurveto
          -15 -3 -14 -5 -9 hhcurveto
          -9 -5 5 4 -4 hvcurveto
          -64 64 rlineto
          -50 50 -44 -149 -49 vvcurveto
          -83 55 -20 72 -2 vhcurveto
          -40 -60 vlineto
          -20 -17 5 15 -11 hvcurveto
          -52 -90 rlineto
          202 hlineto
          23 15 15 25 hvcurveto
          96 vlineto
          25 -13 16 -35 vhcurveto
          endchar
        </CharString>
        <CharString name="yehfarsi">
          -100 -220 70 40 67 64 -21 70 83 hstem
          0 42 85 80 vstem
          159 -43 rmoveto
          -32 -22 6 23 -23 hvcurveto
          -31 31 -17 17 9 47 14 -14 rlinecurve
          52 -52 rlineto
          -10 10 9 -5 12 hhcurveto
          16 36 10 80 10 hvcurveto
          -15 -3 -14 -5 -9 hhcurveto
          -9 -5 5 4 -4 hvcurveto
          -64 64 rlineto
          -50 50 -44 -149 -49 vvcurveto
          -83 55 -20 72 -2 vhcurveto
          -40 -60 vlineto
          -20 -17 5 15 -11 hvcurveto
          -52 -90 rlineto
          202 hlineto
          23 15 15 25 hvcurveto
          96 vlineto
          25 -13 16 -35 vhcurveto
          endchar
        </CharString>
        <CharString name="zahar">
          403 0 70 40 70 380 -20 hstem
          80 80 466 84 vstem
          596 180 rmoveto
          -436 380 hlineto
          -80 -20 rlineto
          -470 -40 vlineto
          -40 -70 rlineto
          689 hlineto
          6 15 0 21 139 -70 20 -44 hvcurveto
          -159 154 rmoveto
          -17 10 -47 -79 17 -10 rlineto
          236 -185 rmoveto
          -466 40 426 hlineto
          22 18 -18 -22 hvcurveto
          endchar
        </CharString>
        <CharString name="zainar">
          -35 -110 70 40 140 -119 -21 hstemhm
          213 84 hintmask 10110000
          117 215 rmoveto
          -17 10 47 79 17 -10 rlineto
          -227 -404 rmoveto
          339 hlineto
          6 15 0 21 hvcurveto
          hintmask 11010000
          139 -69 43 -147 47 vhcurveto
          -80 -140 rlineto
          172 hlineto
          22 18 -18 -22 hvcurveto
          -236 hlineto
          endchar
        </CharString>
        <CharString name="zeroar">
          -237 140 70 hstem
          0 70 vstem
          210 vmoveto
          -70 70 70 vlineto
          endchar
        </CharString>
</ttFont>
